<svg version="1.1" xmlns="http://www.w3.org/2000/svg" viewBox="0 0 2700.4950479317044 605.2664259173434" width="2700.4950479317044" height="605.2664259173434" filter="invert(93%) hue-rotate(180deg)">
  <!-- svg-source:excalidraw -->
  
  <defs>
    <style class="style-fonts">
      @font-face {
        font-family: "Virgil";
        src: url("https://excalidraw.com/Virgil.woff2");
      }
      @font-face {
        font-family: "Cascadia";
        src: url("https://excalidraw.com/Cascadia.woff2");
      }
      @font-face {
        font-family: "Assistant";
        src: url("https://excalidraw.com/Assistant-Regular.woff2");
      }
    </style>
    
  </defs>
  <rect x="0" y="0" width="2700.4950479317044" height="605.2664259173434" fill="#f8f9fa"></rect><g transform="translate(1028.8463071138003 10) rotate(0 317.27783203125 78.49266291529875)"><text x="317.27783203125" y="0" font-family="Virgil, Segoe UI Emoji" font-size="62.794130332238986px" fill="#2f9e44" text-anchor="middle" style="white-space: pre;" direction="ltr" dominant-baseline="text-before-edge">DATA BASE MODEL</text><text x="317.27783203125" y="78.49266291529874" font-family="Virgil, Segoe UI Emoji" font-size="62.794130332238986px" fill="#2f9e44" text-anchor="middle" style="white-space: pre;" direction="ltr" dominant-baseline="text-before-edge"></text></g><g stroke-linecap="round" transform="translate(10 191.26642591734344) rotate(0 331 202)"><path d="M32 0 C208.42 1.46, 386.61 1.73, 630 0 M32 0 C182.06 1.21, 332.4 0.86, 630 0 M630 0 C653.2 -1.65, 660.72 9.02, 662 32 M630 0 C649.32 0.34, 663.83 10.94, 662 32 M662 32 C660.52 118.93, 661.85 204.68, 662 372 M662 32 C662.37 104.63, 662.52 176.34, 662 372 M662 372 C660.77 393.91, 652.02 405.29, 630 404 M662 372 C664.2 392.84, 651.67 403.27, 630 404 M630 404 C461.95 403.66, 293.69 404.45, 32 404 M630 404 C463.23 406.11, 295.32 406.31, 32 404 M32 404 C11.52 405.18, -1.65 394.36, 0 372 M32 404 C11.84 403.63, -0.37 394.18, 0 372 M0 372 C-0.06 273.57, 1.67 172.91, 0 32 M0 372 C-2.23 241, -2.66 110.39, 0 32 M0 32 C1.27 9.83, 10.95 0.75, 32 0 M0 32 C-1.95 12.12, 9.98 -0.33, 32 0" stroke="#2f9e44" stroke-width="1" fill="none"></path></g><g stroke-linecap="round"><g transform="translate(406.2222222222222 273.26642591734344) rotate(0 -0.8888888888886868 159.66666666666652)"><path d="M0.73 1.04 C0.7 54.3, -0.08 265.78, -0.65 318.74 M-0.35 0.54 C-0.39 54.02, -1.02 266.75, -1 319.97" stroke="#2f9e44" stroke-width="1" fill="none"></path></g></g><mask></mask><g transform="translate(42.13005065917969 297.26642591734344) rotate(0 165.8699493408203 90)"><text x="0" y="0" font-family="Virgil, Segoe UI Emoji" font-size="36px" fill="#2f9e44" text-anchor="start" style="white-space: pre;" direction="ltr" dominant-baseline="text-before-edge">PK ID_EMPLOYEE</text><text x="0" y="45" font-family="Virgil, Segoe UI Emoji" font-size="36px" fill="#2f9e44" text-anchor="start" style="white-space: pre;" direction="ltr" dominant-baseline="text-before-edge">IS_ADMIN</text><text x="0" y="90" font-family="Virgil, Segoe UI Emoji" font-size="36px" fill="#2f9e44" text-anchor="start" style="white-space: pre;" direction="ltr" dominant-baseline="text-before-edge">NAME</text><text x="0" y="135" font-family="Virgil, Segoe UI Emoji" font-size="36px" fill="#2f9e44" text-anchor="start" style="white-space: pre;" direction="ltr" dominant-baseline="text-before-edge">PASSWORD</text></g><g transform="translate(461.82668558756495 296.8219814728982) rotate(0 78.83998107910156 112.5)"><text x="0" y="0" font-family="Virgil, Segoe UI Emoji" font-size="36px" fill="#2f9e44" text-anchor="start" style="white-space: pre;" direction="ltr" dominant-baseline="text-before-edge">INT</text><text x="0" y="45" font-family="Virgil, Segoe UI Emoji" font-size="36px" fill="#2f9e44" text-anchor="start" style="white-space: pre;" direction="ltr" dominant-baseline="text-before-edge">INT</text><text x="0" y="90" font-family="Virgil, Segoe UI Emoji" font-size="36px" fill="#2f9e44" text-anchor="start" style="white-space: pre;" direction="ltr" dominant-baseline="text-before-edge">VARCHAR</text><text x="0" y="135" font-family="Virgil, Segoe UI Emoji" font-size="36px" fill="#2f9e44" text-anchor="start" style="white-space: pre;" direction="ltr" dominant-baseline="text-before-edge">VARCHAR</text><text x="0" y="180" font-family="Virgil, Segoe UI Emoji" font-size="36px" fill="#2f9e44" text-anchor="start" style="white-space: pre;" direction="ltr" dominant-baseline="text-before-edge"></text></g><g stroke-linecap="round"><g transform="translate(12 277.26642591734344) rotate(0 329.7777777777778 -1.3333333333330302)"><path d="M0.05 0.57 C110.27 0.13, 550.35 -2.45, 660.45 -3.15 M-1.39 -0.18 C108.83 -0.42, 549.66 -1.43, 659.98 -1.87" stroke="#2f9e44" stroke-width="1" fill="none"></path></g></g><mask></mask><g transform="translate(245.44670359293696 211.48864813956425) rotate(0 95.21996307373047 22.5)"><text x="95.21996307373047" y="0" font-family="Virgil, Segoe UI Emoji" font-size="36px" fill="#2f9e44" text-anchor="middle" style="white-space: pre;" direction="ltr" dominant-baseline="text-before-edge">EMPLOYEE</text></g><g stroke-linecap="round" transform="translate(950 237.26642591734344) rotate(0 399 127)"><path d="M32 0 C213.01 -0.24, 395.97 0.54, 766 0 M32 0 C290.31 -0.93, 549.11 -0.54, 766 0 M766 0 C789.21 1.89, 798.53 9.67, 798 32 M766 0 C786.36 1.81, 797.07 11.85, 798 32 M798 32 C799.74 106.7, 797.83 181.5, 798 222 M798 32 C799.33 71.18, 798.28 110.33, 798 222 M798 222 C796.34 241.93, 787.6 254.74, 766 254 M798 222 C795.97 244.16, 785.73 252.21, 766 254 M766 254 C593.18 254.91, 421.36 254.42, 32 254 M766 254 C514.33 256.02, 262.67 256.26, 32 254 M32 254 C10.67 255.48, -0.25 242.08, 0 222 M32 254 C10.97 254.84, 0.63 243.38, 0 222 M0 222 C1.72 149.41, -0.78 74.89, 0 32 M0 222 C0 150.65, -0.09 78.65, 0 32 M0 32 C0.56 10.56, 12.58 -0.45, 32 0 M0 32 C-1.59 10.7, 8.47 -1.24, 32 0" stroke="#2f9e44" stroke-width="1" fill="none"></path></g><g stroke-linecap="round"><g transform="translate(1522.2222222222222 319.26642591734344) rotate(0 -0.8888888888886868 84.66666666666652)"><path d="M-0.08 0.87 C-0.45 29.06, -2.27 140.56, -2.69 168.78 M-1.58 0.28 C-1.53 28.65, -0.7 142.03, -0.46 170.03" stroke="#2f9e44" stroke-width="1" fill="none"></path></g></g><mask></mask><g transform="translate(962.1300506591797 341.26642591734344) rotate(0 273.1138916015625 112.5)"><text x="0" y="0" font-family="Virgil, Segoe UI Emoji" font-size="36px" fill="#2f9e44" text-anchor="start" style="white-space: pre;" direction="ltr" dominant-baseline="text-before-edge">EMPLOYEE_ID EMPLOYE</text><text x="0" y="45" font-family="Virgil, Segoe UI Emoji" font-size="36px" fill="#2f9e44" text-anchor="start" style="white-space: pre;" direction="ltr" dominant-baseline="text-before-edge">INCIDENCES_ID_INCIDENCE</text><text x="0" y="90" font-family="Virgil, Segoe UI Emoji" font-size="36px" fill="#2f9e44" text-anchor="start" style="white-space: pre;" direction="ltr" dominant-baseline="text-before-edge"></text><text x="0" y="135" font-family="Virgil, Segoe UI Emoji" font-size="36px" fill="#2f9e44" text-anchor="start" style="white-space: pre;" direction="ltr" dominant-baseline="text-before-edge"></text><text x="0" y="180" font-family="Virgil, Segoe UI Emoji" font-size="36px" fill="#2f9e44" text-anchor="start" style="white-space: pre;" direction="ltr" dominant-baseline="text-before-edge"></text></g><g transform="translate(1565.826685587565 330.8219814728982) rotate(0 35.873992919921875 90)"><text x="0" y="0" font-family="Virgil, Segoe UI Emoji" font-size="36px" fill="#2f9e44" text-anchor="start" style="white-space: pre;" direction="ltr" dominant-baseline="text-before-edge">INT</text><text x="0" y="45" font-family="Virgil, Segoe UI Emoji" font-size="36px" fill="#2f9e44" text-anchor="start" style="white-space: pre;" direction="ltr" dominant-baseline="text-before-edge">INT</text><text x="0" y="90" font-family="Virgil, Segoe UI Emoji" font-size="36px" fill="#2f9e44" text-anchor="start" style="white-space: pre;" direction="ltr" dominant-baseline="text-before-edge"></text><text x="0" y="135" font-family="Virgil, Segoe UI Emoji" font-size="36px" fill="#2f9e44" text-anchor="start" style="white-space: pre;" direction="ltr" dominant-baseline="text-before-edge"></text></g><g stroke-linecap="round"><g transform="translate(952 323.26642591734344) rotate(0 389.7777777777778 -1.3333333333330302)"><path d="M1.06 0.02 C130.66 -0.14, 648.81 -1.12, 778.74 -1.71 M0.15 -1.01 C130.04 -1.44, 650.97 -3.06, 781.03 -3.33" stroke="#2f9e44" stroke-width="1" fill="none"></path></g></g><mask></mask><g transform="translate(1055.3427530924487 257.48864813956425) rotate(0 225.32391357421875 22.5)"><text x="225.32391357421875" y="0" font-family="Virgil, Segoe UI Emoji" font-size="36px" fill="#2f9e44" text-anchor="middle" style="white-space: pre;" direction="ltr" dominant-baseline="text-before-edge">EMPLOYEE_INCIDENCES</text></g><g stroke-linecap="round" transform="translate(2028 191.26642591734344) rotate(0 331 202)"><path d="M32 0 C197.83 -0.64, 364.11 -0.55, 630 0 M32 0 C186.3 -0.68, 341.6 -0.68, 630 0 M630 0 C652.61 0.14, 660.26 9.7, 662 32 M630 0 C650.27 -1.52, 659.92 9.84, 662 32 M662 32 C663.19 138.93, 662.18 244.61, 662 372 M662 32 C663.37 163.68, 664.46 295.02, 662 372 M662 372 C660.41 393.73, 651.31 402.49, 630 404 M662 372 C661.74 392.95, 651.33 405.2, 630 404 M630 404 C397.59 402.86, 164.19 403, 32 404 M630 404 C493.93 406.1, 358.67 406.45, 32 404 M32 404 C10.95 404.83, 1.53 394.77, 0 372 M32 404 C12.56 404.1, -1.37 391.66, 0 372 M0 372 C-1.77 288.27, 0.33 206.81, 0 32 M0 372 C0.01 283.33, -0.59 194.11, 0 32 M0 32 C1.56 10.05, 10.68 -0.98, 32 0 M0 32 C-1.2 12.45, 11.61 1.3, 32 0" stroke="#2f9e44" stroke-width="1" fill="none"></path></g><g stroke-linecap="round"><g transform="translate(2424.2222222222226 273.26642591734344) rotate(0 -0.8888888888886868 159.66666666666652)"><path d="M0.05 -0.19 C-0.28 53.02, -1.48 265.53, -1.59 318.84 M-1.39 -1.33 C-1.88 52.08, -2.54 266.37, -2.44 320.11" stroke="#2f9e44" stroke-width="1" fill="none"></path></g></g><mask></mask><g transform="translate(2059.1300506591797 297.26642591734344) rotate(0 174.9419403076172 135)"><text x="0" y="0" font-family="Virgil, Segoe UI Emoji" font-size="36px" fill="#2f9e44" text-anchor="start" style="white-space: pre;" direction="ltr" dominant-baseline="text-before-edge">PK ID_INCIDENCE</text><text x="0" y="45" font-family="Virgil, Segoe UI Emoji" font-size="36px" fill="#2f9e44" text-anchor="start" style="white-space: pre;" direction="ltr" dominant-baseline="text-before-edge">DATE</text><text x="0" y="90" font-family="Virgil, Segoe UI Emoji" font-size="36px" fill="#2f9e44" text-anchor="start" style="white-space: pre;" direction="ltr" dominant-baseline="text-before-edge">DESCRIPTION</text><text x="0" y="135" font-family="Virgil, Segoe UI Emoji" font-size="36px" fill="#2f9e44" text-anchor="start" style="white-space: pre;" direction="ltr" dominant-baseline="text-before-edge">TITLE</text><text x="0" y="180" font-family="Virgil, Segoe UI Emoji" font-size="36px" fill="#2f9e44" text-anchor="start" style="white-space: pre;" direction="ltr" dominant-baseline="text-before-edge">TYPE</text><text x="0" y="225" font-family="Virgil, Segoe UI Emoji" font-size="36px" fill="#2f9e44" text-anchor="start" style="white-space: pre;" direction="ltr" dominant-baseline="text-before-edge"></text></g><g transform="translate(2479.8266855875645 296.8219814728982) rotate(0 78.83998107910156 112.5)"><text x="0" y="0" font-family="Virgil, Segoe UI Emoji" font-size="36px" fill="#2f9e44" text-anchor="start" style="white-space: pre;" direction="ltr" dominant-baseline="text-before-edge">INT</text><text x="0" y="45" font-family="Virgil, Segoe UI Emoji" font-size="36px" fill="#2f9e44" text-anchor="start" style="white-space: pre;" direction="ltr" dominant-baseline="text-before-edge">VARCHAR</text><text x="0" y="90" font-family="Virgil, Segoe UI Emoji" font-size="36px" fill="#2f9e44" text-anchor="start" style="white-space: pre;" direction="ltr" dominant-baseline="text-before-edge">VARCHAR</text><text x="0" y="135" font-family="Virgil, Segoe UI Emoji" font-size="36px" fill="#2f9e44" text-anchor="start" style="white-space: pre;" direction="ltr" dominant-baseline="text-before-edge">VARCHAR</text><text x="0" y="180" font-family="Virgil, Segoe UI Emoji" font-size="36px" fill="#2f9e44" text-anchor="start" style="white-space: pre;" direction="ltr" dominant-baseline="text-before-edge"></text></g><g stroke-linecap="round"><g transform="translate(2030 277.26642591734344) rotate(0 329.7777777777778 -1.3333333333330302)"><path d="M-1.04 -0.16 C108.85 -0.68, 550.27 -2.43, 660.5 -2.83 M0.62 -1.29 C110.33 -1.65, 550.15 -1.39, 660.04 -1.38" stroke="#2f9e44" stroke-width="1" fill="none"></path></g></g><mask></mask><g transform="translate(2254.374704996746 211.48864813956425) rotate(0 104.29196166992188 22.5)"><text x="104.29196166992188" y="0" font-family="Virgil, Segoe UI Emoji" font-size="36px" fill="#2f9e44" text-anchor="middle" style="white-space: pre;" direction="ltr" dominant-baseline="text-before-edge">INCIDENCE</text></g><g stroke-linecap="round"><g transform="translate(1750.7778124941265 375.73857002778186) rotate(0 137.12476566464852 -0.7916796852973675)"><path d="M1.19 -0.15 C46.68 -0.3, 227.57 -0.4, 273.18 -0.59 M0.36 -1.27 C46.18 -1.77, 229.65 -2.43, 275.33 -2.19" stroke="#2f9e44" stroke-width="1" fill="none"></path></g></g><mask></mask><g stroke-linecap="round"><g transform="translate(1997.9165625176224 372.83205680756055) rotate(0 15.305390652900542 -14.902617214666407)"><path d="M1.2 0.49 C6.52 -4.34, 26.15 -23.76, 31.14 -28.91 M0.36 -0.3 C5.64 -5.47, 25.42 -25.72, 30.47 -30.56" stroke="#2f9e44" stroke-width="1" fill="none"></path></g></g><mask></mask><g stroke-linecap="round"><g transform="translate(1999.5276562705594 376.05424431343454) rotate(0 13.694296899963774 13.694296899963774)"><path d="M-0.58 -1.12 C3.98 3.44, 23.75 23.5, 28.51 28.27 M1.32 0.91 C5.71 5.06, 23.79 21.95, 28.15 26.6" stroke="#2f9e44" stroke-width="1" fill="none"></path></g></g><mask></mask><g stroke-linecap="round"><g transform="translate(1430.1701556596804 375.73857002778186) rotate(0 137.12476566464852 -0.7916796852973675)"><path d="M0.22 -0.2 C46.02 -0.55, 228.36 -1.17, 274.12 -1.36 M-1.12 -1.35 C44.57 -2.15, 227.2 -3.6, 273.1 -3.37" stroke="#2f9e44" stroke-width="1" fill="none"></path></g></g><mask></mask><g stroke-linecap="round"><g transform="translate(672.1505449028609 375.73857002778186) rotate(0 137.12476566464852 -0.7916796852973675)"><path d="M0.1 0.26 C45.93 -0.05, 228.77 -2.1, 274.39 -2.33 M-1.31 -0.65 C44.42 -0.78, 227.82 -0.75, 273.51 -1.18" stroke="#2f9e44" stroke-width="1" fill="none"></path></g></g><mask></mask><g stroke-linecap="round"><g transform="translate(709.8471070445589 375.2486974369649) rotate(0 -19.735898473477164 -14.902617214666407)"><path d="M-0.95 0.08 C-7.53 -4.73, -32.43 -24.01, -38.88 -29.04 M0.76 -0.92 C-5.99 -6.06, -32.64 -26.09, -39.51 -30.76" stroke="#2f9e44" stroke-width="1" fill="none"></path></g></g><mask></mask><g stroke-linecap="round"><g transform="translate(707.7324806852994 377.32964966215604) rotate(0 -18.275811855613256 19.098195799116183)"><path d="M-0.26 -0.6 C-6.4 6.02, -31.64 32.82, -37.74 39.14 M1.8 1.7 C-3.91 8.05, -29.06 31.44, -35.65 37.51" stroke="#2f9e44" stroke-width="1" fill="none"></path></g></g><mask></mask></svg>