<svg version="1.1" xmlns="http://www.w3.org/2000/svg" viewBox="0 0 3834.761904761905 1613.4841269841281" width="3834.761904761905" height="1613.4841269841281" filter="invert(93%) hue-rotate(180deg)">
  <!-- svg-source:excalidraw -->
  
  <defs>
    <style class="style-fonts">
      @font-face {
        font-family: "Virgil";
        src: url("https://excalidraw.com/Virgil.woff2");
      }
      @font-face {
        font-family: "Cascadia";
        src: url("https://excalidraw.com/Cascadia.woff2");
      }
      @font-face {
        font-family: "Assistant";
        src: url("https://excalidraw.com/Assistant-Regular.woff2");
      }
    </style>
    
  </defs>
  <rect x="0" y="0" width="3834.761904761905" height="1613.4841269841281" fill="#f8f9fa"></rect><g stroke-linecap="round" transform="translate(1093.8095238095234 1081.6269841269814) rotate(0 220.6039755351685 104.54710144927549)"><path d="M32 0 C153.91 1.01, 277.52 1.95, 409.21 0 M32 0 C119.66 -0.99, 208.65 -0.95, 409.21 0 M409.21 0 C431.63 0.84, 442.77 9.4, 441.21 32 M409.21 0 C432.46 -1.03, 441.27 11.72, 441.21 32 M441.21 32 C443.65 71.88, 442.87 112.25, 441.21 177.09 M441.21 32 C439.93 79.25, 440.92 127.46, 441.21 177.09 M441.21 177.09 C440.96 198.71, 431.82 210.38, 409.21 209.09 M441.21 177.09 C440.87 199.68, 430.93 208.59, 409.21 209.09 M409.21 209.09 C313.29 207.89, 216.11 208.23, 32 209.09 M409.21 209.09 C284.11 207.64, 157.75 206.83, 32 209.09 M32 209.09 C10.77 210.62, 1.35 197.4, 0 177.09 M32 209.09 C9.97 208.42, 1.9 197.53, 0 177.09 M0 177.09 C-0.66 143.94, 0.43 111.16, 0 32 M0 177.09 C-0.04 132.89, -0.94 87.66, 0 32 M0 32 C-0.1 11.52, 10.32 0.78, 32 0 M0 32 C-1.67 11.8, 10.17 -0.13, 32 0" stroke="#2f9e44" stroke-width="1" fill="none"></path></g><g transform="translate(1199.3157729785173 1164.1136880227405) rotate(0 109.59601254457527 25.896988432389207)"><text x="0" y="0" font-family="Virgil, Segoe UI Emoji" font-size="41.435181491823px" fill="#2f9e44" text-anchor="start" style="white-space: pre;" direction="ltr" dominant-baseline="text-before-edge">EMPLOYEE</text></g><g stroke-linecap="round" transform="translate(2305.353866317168 1070.4841269841236) rotate(0 214.52599388379235 101.66666666666652)"><path d="M32 0 C117.95 1.26, 202.45 1.29, 397.05 0 M32 0 C157.69 -1.12, 283.44 -0.26, 397.05 0 M397.05 0 C419.23 0.55, 430.21 8.77, 429.05 32 M397.05 0 C420.22 1.14, 427.3 10.35, 429.05 32 M429.05 32 C430.15 88.92, 431.78 142.03, 429.05 171.33 M429.05 32 C427.81 84.53, 428.53 137.31, 429.05 171.33 M429.05 171.33 C429.14 192.36, 418.28 202.71, 397.05 203.33 M429.05 171.33 C427.11 194.07, 417.06 203.53, 397.05 203.33 M397.05 203.33 C268.22 206.21, 136.53 206.31, 32 203.33 M397.05 203.33 C292.08 202.88, 186.59 202.28, 32 203.33 M32 203.33 C8.82 202.99, 1.19 193.63, 0 171.33 M32 203.33 C12.34 202.94, 1.26 191.12, 0 171.33 M0 171.33 C-1.76 138.28, -2.38 108.6, 0 32 M0 171.33 C-1.74 128.9, -0.08 85.04, 0 32 M0 32 C-0.86 8.79, 12.43 0.77, 32 0 M0 32 C0.23 10.22, 11.43 -1.05, 32 0" stroke="#2f9e44" stroke-width="1" fill="none"></path></g><g transform="translate(2407.9532546963733 1150.6981942624116) rotate(0 116.73045251128883 25.18348623853217)"><text x="0" y="0" font-family="Virgil, Segoe UI Emoji" font-size="40.29357798165145px" fill="#2f9e44" text-anchor="start" style="white-space: pre;" direction="ltr" dominant-baseline="text-before-edge">INCIDENCE</text></g><g stroke-linecap="round" transform="translate(1725.6428571428573 1024.4603174603144) rotate(0 194.16666666666674 164.16666666666697)"><path d="M243.75 41.25 C268.76 61.31, 293.42 83.71, 339.58 123.75 M243.75 41.25 C266.91 59.58, 288.75 79.2, 339.58 123.75 M339.58 123.75 C389.17 166.02, 388.39 164.76, 339.58 206.25 M339.58 123.75 C387.48 165.56, 386.85 164.48, 339.58 206.25 M339.58 206.25 C313.83 227.8, 290.9 250.42, 243.75 287.08 M339.58 206.25 C306.51 233.53, 273.97 260.89, 243.75 287.08 M243.75 287.08 C193.39 328.58, 196.64 328.76, 146.25 287.08 M243.75 287.08 C193.9 330.15, 195.54 327.58, 146.25 287.08 M146.25 287.08 C109.65 259.99, 76.03 229.71, 48.75 206.25 M146.25 287.08 C120.1 266.31, 93.69 245.53, 48.75 206.25 M48.75 206.25 C-0.81 164.61, -0.01 166.28, 48.75 123.75 M48.75 206.25 C-1.65 165.51, -0.04 164.38, 48.75 123.75 M48.75 123.75 C84.47 94.57, 116.74 65.78, 146.25 41.25 M48.75 123.75 C81.55 97.18, 112.2 70.07, 146.25 41.25 M146.25 41.25 C196.66 -1.53, 196.45 1.47, 243.75 41.25 M146.25 41.25 C194.17 -0.25, 193.75 -0.03, 243.75 41.25" stroke="#2f9e44" stroke-width="1" fill="none"></path></g><g transform="translate(1876.5621966407416 1166.0436507936483) rotate(0 43.16399383544922 22.5)"><text x="43.16399383544922" y="0" font-family="Virgil, Segoe UI Emoji" font-size="36px" fill="#2f9e44" text-anchor="middle" style="white-space: pre;" direction="ltr" dominant-baseline="text-before-edge">HAVE</text></g><g stroke-linecap="round" transform="translate(3308.8095238095234 773.4603174603162) rotate(0 248.33333333333348 79.5795454545455)"><path d="M311.46 3.04 C333.89 3.64, 356.2 7.85, 376.12 11.49 C396.03 15.14, 415.12 19.55, 430.97 24.91 C446.82 30.28, 460.9 36.99, 471.23 43.69 C481.55 50.39, 488.85 57.64, 492.92 65.13 C496.98 72.62, 498.08 81.18, 495.59 88.62 C493.1 96.07, 487.17 102.96, 477.97 109.82 C468.77 116.68, 455.36 123.89, 440.4 129.79 C425.44 135.69, 407.29 140.93, 388.22 145.23 C369.15 149.53, 347.92 153.25, 325.98 155.58 C304.05 157.91, 280.03 159.05, 256.59 159.19 C233.15 159.33, 207.95 158.34, 185.34 156.42 C162.73 154.5, 140.91 151.33, 120.94 147.66 C100.96 143.98, 81.38 139.81, 65.5 134.37 C49.61 128.94, 35.78 121.76, 25.6 115.07 C15.42 108.38, 8.53 101.7, 4.4 94.23 C0.26 86.75, -1.77 77.89, 0.8 70.22 C3.38 62.55, 10.63 54.9, 19.84 48.19 C29.06 41.48, 41.35 35.51, 56.08 29.95 C70.81 24.39, 89.1 19.22, 108.23 14.84 C127.36 10.46, 148.7 6.21, 170.85 3.67 C193.01 1.13, 214.2 -0.5, 241.16 -0.38 C268.13 -0.26, 314.37 2.66, 332.65 4.38 C350.92 6.1, 352.21 8.54, 350.84 9.94 M241.09 -0.76 C263.1 -2.21, 289.94 -0.61, 312.67 1.53 C335.39 3.67, 357.37 8.15, 377.45 12.09 C397.53 16.04, 417.57 19.62, 433.15 25.2 C448.74 30.77, 461.08 38.65, 470.98 45.56 C480.87 52.46, 488.5 59.32, 492.51 66.64 C496.52 73.97, 497.75 82.26, 495.05 89.51 C492.34 96.75, 485.39 103.5, 476.26 110.12 C467.13 116.74, 455.13 123.3, 440.27 129.22 C425.41 135.15, 406.4 141.5, 387.08 145.68 C367.76 149.87, 346.59 151.9, 324.35 154.32 C302.11 156.73, 276.86 160.01, 253.64 160.19 C230.42 160.37, 207.27 157.38, 185.03 155.4 C162.78 153.41, 140.35 151.83, 120.16 148.28 C99.98 144.74, 79.7 139.62, 63.91 134.12 C48.13 128.62, 35.61 122.16, 25.44 115.27 C15.28 108.38, 6.69 100.08, 2.91 92.78 C-0.87 85.48, 0.14 78.85, 2.76 71.47 C5.38 64.08, 9.61 55.33, 18.62 48.47 C27.64 41.62, 41.68 36.33, 56.86 30.34 C72.04 24.35, 90.5 17.17, 109.71 12.54 C128.92 7.92, 150.05 4.74, 172.11 2.58 C194.16 0.42, 230.15 -0.22, 242.04 -0.43 C253.93 -0.64, 243.38 0.13, 243.47 1.33" stroke="#2f9e44" stroke-width="1" fill="none"></path></g><g transform="translate(3395.6420394812053 827.8708994074823) rotate(0 161.4026336669922 25.397727272727025)"><text x="161.4026336669922" y="0" font-family="Virgil, Segoe UI Emoji" font-size="40.63636363636357px" fill="#2f9e44" text-anchor="middle" style="white-space: pre;" direction="ltr" dominant-baseline="text-before-edge">ID_INCIDENCE</text></g><g stroke-linecap="round"><g transform="translate(3399.1125541125534 884.4577922077915) rotate(0 161.79292929292978 -0.9406565656568091)"><path d="M-0.07 0.33 C53.85 0.01, 270.17 -1.74, 324.13 -2.14 M-1.56 -0.54 C52.2 -0.66, 269.37 -0.69, 323.47 -0.73" stroke="#2f9e44" stroke-width="1" fill="none"></path></g></g><mask></mask><g stroke-linecap="round" transform="translate(3322.7338736913175 944.6269841269841) rotate(0 242.204491725769 63.833333333333485)"><path d="M255.7 -0.6 C277.5 -1.31, 301.56 0.75, 323.06 2.88 C344.55 5.01, 366.1 8.64, 384.67 12.18 C403.24 15.71, 420.7 19.38, 434.48 24.09 C448.26 28.81, 459.28 34.77, 467.36 40.46 C475.44 46.15, 480.8 52.2, 482.96 58.25 C485.12 64.29, 484.56 70.83, 480.32 76.72 C476.09 82.61, 468.24 88.35, 457.54 93.58 C446.83 98.8, 431.98 103.8, 416.11 108.08 C400.24 112.36, 382.11 116.1, 362.34 119.24 C342.57 122.37, 319.72 125.46, 297.48 126.89 C275.24 128.33, 251.45 128.18, 228.87 127.86 C206.29 127.55, 183.56 127.1, 162 124.99 C140.43 122.87, 117.95 118.93, 99.47 115.17 C80.98 111.41, 64.84 106.99, 51.08 102.42 C37.31 97.86, 25.17 93.14, 16.86 87.79 C8.55 82.44, 3.34 76.46, 1.24 70.33 C-0.86 64.2, -0.2 57.13, 4.26 51.03 C8.71 44.94, 17.36 39.07, 27.96 33.74 C38.57 28.42, 52.27 23.14, 67.89 19.06 C83.51 14.98, 101.86 12.06, 121.69 9.26 C141.51 6.46, 162.29 3.66, 186.83 2.24 C211.37 0.82, 253.27 0.89, 268.92 0.76 C284.58 0.62, 281.28 0.4, 280.76 1.43 M152.23 3.91 C170.67 0.87, 194.97 1.56, 217.28 1.15 C239.59 0.73, 263.62 0.37, 286.09 1.43 C308.57 2.49, 331.83 4.96, 352.14 7.51 C372.45 10.05, 391.37 12.83, 407.94 16.69 C424.51 20.55, 440.14 25.33, 451.58 30.66 C463.03 36, 471.14 42.9, 476.6 48.7 C482.06 54.51, 485.33 59.37, 484.34 65.49 C483.35 71.62, 477.87 79.77, 470.64 85.44 C463.41 91.11, 453.76 94.67, 440.96 99.51 C428.15 104.35, 411.86 110.44, 393.79 114.51 C375.73 118.57, 353.73 121.63, 332.58 123.91 C311.43 126.19, 289.47 127.76, 266.88 128.19 C244.3 128.62, 219.31 127.53, 197.07 126.5 C174.82 125.46, 153.81 124.66, 133.41 121.97 C113.01 119.29, 91.37 114.5, 74.68 110.41 C58 106.32, 44.42 102.81, 33.29 97.41 C22.16 92.01, 13.5 84.28, 7.93 78.03 C2.36 71.78, -0.95 65.78, -0.14 59.91 C0.67 54.04, 5.2 48.34, 12.79 42.83 C20.37 37.31, 32.27 31.82, 45.35 26.8 C58.43 21.78, 73.81 16.44, 91.26 12.69 C108.71 8.93, 139.71 5.48, 150.06 4.27 C160.42 3.05, 151.79 4.46, 153.39 5.41" stroke="#2f9e44" stroke-width="1" fill="none"></path></g><g transform="translate(3517.6903148234073 987.9509941690449) rotate(0 47.483612060546875 20.372340425532002)"><text x="47.483612060546875" y="0" font-family="Virgil, Segoe UI Emoji" font-size="32.59574468085114px" fill="#2f9e44" text-anchor="middle" style="white-space: pre;" direction="ltr" dominant-baseline="text-before-edge">DATE</text></g><g stroke-linecap="round" transform="translate(3296.9756838905737 1116.5317460317465) rotate(0 259.3693009118556 68.35714285714312)"><path d="M171.47 4.16 C191.95 1.07, 219.85 -0.1, 244.02 -0.52 C268.18 -0.95, 292.93 0.07, 316.46 1.61 C340 3.14, 363.8 5.47, 385.23 8.67 C406.67 11.87, 427.79 16.22, 445.09 20.81 C462.38 25.4, 477.68 30.64, 489.03 36.22 C500.37 41.8, 508.26 48.04, 513.17 54.29 C518.08 60.55, 520.44 67.17, 518.49 73.74 C516.54 80.32, 510.29 87.69, 501.47 93.75 C492.65 99.81, 480.21 105, 465.57 110.12 C450.92 115.23, 433.37 120.75, 413.6 124.44 C393.84 128.13, 369.95 130.3, 347 132.24 C324.04 134.18, 300.02 135.51, 275.87 136.09 C251.71 136.66, 225.85 136.88, 202.09 135.69 C178.33 134.5, 154.67 132.23, 133.29 128.95 C111.91 125.67, 90.91 120.8, 73.83 116 C56.74 111.2, 42.25 105.83, 30.8 100.15 C19.36 94.47, 10.32 87.95, 5.16 81.89 C0.01 75.84, -2.14 70.04, -0.14 63.8 C1.86 57.56, 8.29 50.52, 17.17 44.43 C26.04 38.34, 38.47 32.57, 53.12 27.26 C67.77 21.95, 83.69 16.54, 105.07 12.55 C126.45 8.56, 166.64 4.81, 181.39 3.33 C196.14 1.85, 192.14 2.47, 193.58 3.66 M191.18 2.7 C212.56 0.02, 240.86 0.62, 265.24 0.58 C289.63 0.55, 314.26 0.82, 337.5 2.51 C360.74 4.2, 384.53 6.98, 404.69 10.73 C424.85 14.48, 442.93 20.07, 458.45 25 C473.96 29.93, 488.2 34.28, 497.79 40.31 C507.38 46.35, 512.97 54.83, 515.99 61.19 C519.01 67.56, 519.64 72.24, 515.92 78.52 C512.21 84.79, 504.56 92.72, 493.7 98.84 C482.83 104.95, 467.15 110.43, 450.72 115.21 C434.28 119.99, 415.81 124.33, 395.07 127.51 C374.34 130.69, 349.72 132.54, 326.31 134.28 C302.91 136.01, 279.11 138.05, 254.63 137.95 C230.16 137.84, 202.81 135.57, 179.46 133.64 C156.1 131.72, 134.35 130.2, 114.51 126.39 C94.67 122.58, 76.04 116.16, 60.41 110.78 C44.79 105.41, 30.52 99.91, 20.74 94.14 C10.97 88.36, 4.44 82.34, 1.77 76.12 C-0.91 69.91, 0.72 63.29, 4.71 56.84 C8.7 50.39, 15.43 43.21, 25.69 37.4 C35.94 31.6, 49.77 26.66, 66.26 22.02 C82.74 17.38, 103.75 12.96, 124.61 9.57 C145.47 6.19, 179.97 2.62, 191.41 1.71 C202.85 0.81, 191.82 2.73, 193.24 4.15" stroke="#2f9e44" stroke-width="1" fill="none"></path></g><g transform="translate(3428.9011629615693 1163.2369802095736) rotate(0 127.54203033447266 21.816109422492445)"><text x="127.54203033447266" y="0" font-family="Virgil, Segoe UI Emoji" font-size="34.905775075987975px" fill="#2f9e44" text-anchor="middle" style="white-space: pre;" direction="ltr" dominant-baseline="text-before-edge">DESCRIPTION</text></g><g stroke-linecap="round" transform="translate(3286.6666666666656 1292.7222222222235) rotate(0 267.50000000000045 70.5)"><path d="M275.69 -0.06 C298.45 -0.88, 324.23 1.29, 347.34 3.27 C370.46 5.24, 393.98 8.33, 414.36 11.81 C434.74 15.28, 453.89 19.43, 469.61 24.12 C485.34 28.81, 498.35 34.25, 508.68 39.94 C519.01 45.62, 527.46 51.83, 531.61 58.25 C535.76 64.68, 536.09 72.1, 533.58 78.47 C531.08 84.85, 525.2 90.6, 516.56 96.51 C507.91 102.43, 496.33 109.01, 481.71 113.96 C467.09 118.91, 448.01 122.61, 428.82 126.2 C409.63 129.8, 388.75 133.02, 366.55 135.53 C344.34 138.05, 319.55 140.39, 295.61 141.29 C271.68 142.18, 246.76 142.12, 222.93 140.9 C199.11 139.68, 174.44 136.91, 152.68 133.98 C130.91 131.05, 110.48 127.5, 92.35 123.32 C74.22 119.14, 57.31 113.98, 43.88 108.92 C30.44 103.85, 19.02 98.8, 11.73 92.92 C4.44 87.04, 0.87 80.05, 0.15 73.61 C-0.57 67.18, 1.9 60.7, 7.42 54.33 C12.94 47.95, 21.61 40.93, 33.27 35.37 C44.94 29.81, 60.44 25.34, 77.41 20.97 C94.38 16.61, 114.02 12.2, 135.11 9.19 C156.2 6.17, 178.26 4.43, 203.94 2.87 C229.61 1.31, 272.63 0.05, 289.16 -0.17 C305.69 -0.38, 303.35 0.33, 303.11 1.58 M317.95 0.29 C341.17 0.47, 364.52 4.82, 386.03 7.64 C407.55 10.45, 429.23 12.78, 447.04 17.17 C464.85 21.55, 479.98 28.6, 492.91 33.95 C505.83 39.31, 517.43 43.29, 524.58 49.31 C531.74 55.33, 535.69 63.39, 535.82 70.06 C535.95 76.74, 531.57 83.21, 525.37 89.37 C519.18 95.52, 510.76 101.69, 498.65 106.99 C486.53 112.29, 469.86 116.69, 452.65 121.16 C435.45 125.63, 416.74 130.76, 395.43 133.81 C374.13 136.86, 348.45 138.02, 324.84 139.43 C301.23 140.84, 277.43 142.82, 253.76 142.27 C230.09 141.72, 205.69 138.58, 182.81 136.12 C159.92 133.67, 136.47 130.97, 116.44 127.52 C96.42 124.07, 77.87 120.11, 62.64 115.42 C47.42 110.72, 35.05 105.24, 25.09 99.35 C15.13 93.45, 6.92 86.34, 2.91 80.05 C-1.1 73.76, -2.01 67.77, 1.01 61.6 C4.03 55.42, 11.73 48.88, 21.03 42.99 C30.34 37.1, 42.06 31.08, 56.85 26.26 C71.64 21.43, 90.03 17.46, 109.76 14.04 C129.48 10.62, 152.47 7.89, 175.2 5.73 C197.92 3.58, 222.34 1.65, 246.11 1.09 C269.88 0.53, 306.26 2.34, 317.82 2.39 C329.37 2.43, 316.45 0.57, 315.44 1.35" stroke="#2f9e44" stroke-width="1" fill="none"></path></g><g transform="translate(3492.3476110610804 1340.8711941485717) rotate(0 61.667991638183594 22.5)"><text x="61.667991638183594" y="0" font-family="Virgil, Segoe UI Emoji" font-size="36px" fill="#2f9e44" text-anchor="middle" style="white-space: pre;" direction="ltr" dominant-baseline="text-before-edge">TITLE</text></g><g stroke-linecap="round" transform="translate(3289.761904761904 1462.4841269841281) rotate(0 267.50000000000045 70.5)"><path d="M255.91 0.42 C278.78 -0.98, 305.4 0.54, 328.7 1.89 C352.01 3.23, 374.7 5.49, 395.76 8.51 C416.82 11.52, 437.83 15.35, 455.04 19.96 C472.26 24.57, 487.13 30.6, 499.06 36.15 C510.99 41.71, 520.54 47.16, 526.64 53.31 C532.73 59.46, 536.31 66.85, 535.64 73.08 C534.97 79.3, 529.67 84.85, 522.6 90.67 C515.54 96.49, 506.03 102.47, 493.23 107.99 C480.43 113.5, 463.76 119.32, 445.8 123.77 C427.84 128.23, 407.19 132.08, 385.48 134.71 C363.77 137.35, 339.21 138.65, 315.53 139.58 C291.86 140.51, 267.36 140.89, 243.44 140.29 C219.51 139.7, 194.66 138.03, 171.99 136 C149.31 133.97, 126.66 131.73, 107.36 128.11 C88.07 124.49, 70.82 119.4, 56.21 114.3 C41.61 109.19, 28.96 103.57, 19.75 97.49 C10.55 91.41, 3.78 84.14, 0.96 77.81 C-1.85 71.49, -0.96 65.67, 2.86 59.54 C6.67 53.41, 13.62 46.68, 23.84 41.02 C34.06 35.37, 48.56 30.52, 64.2 25.62 C79.84 20.71, 97.69 15.34, 117.68 11.59 C137.68 7.84, 159.82 5.02, 184.18 3.11 C208.55 1.19, 249.18 0.41, 263.87 0.08 C278.56 -0.26, 272.35 -0.08, 272.3 1.11 M183.76 2.52 C204.08 -0.31, 230.26 1.43, 254.39 1.13 C278.51 0.83, 304.79 -0.63, 328.51 0.74 C352.24 2.12, 375.89 5.98, 396.73 9.36 C417.58 12.74, 436.47 16.57, 453.59 21.02 C470.72 25.47, 487.41 30.76, 499.49 36.08 C511.57 41.39, 519.99 46.72, 526.07 52.93 C532.14 59.14, 536.63 66.96, 535.97 73.33 C535.3 79.71, 529.22 85.1, 522.07 91.19 C514.92 97.27, 505.67 104.72, 493.06 109.84 C480.45 114.96, 464.47 118.12, 446.43 121.91 C428.39 125.7, 406.59 129.67, 384.84 132.58 C363.08 135.49, 339.3 138.07, 315.9 139.38 C292.5 140.68, 268.4 141.12, 244.43 140.42 C220.46 139.73, 194.9 137.48, 172.06 135.2 C149.23 132.92, 126.64 130.39, 107.44 126.73 C88.23 123.08, 71.51 118.32, 56.83 113.28 C42.15 108.24, 28.55 102.2, 19.37 96.48 C10.19 90.77, 4.22 84.98, 1.78 79 C-0.66 73.02, 0.73 66.8, 4.73 60.6 C8.73 54.4, 15.92 47.58, 25.79 41.8 C35.67 36.02, 48.8 31.11, 63.99 25.93 C79.19 20.75, 97.18 14.63, 116.96 10.72 C136.75 6.81, 171.54 3.69, 182.72 2.48 C193.9 1.28, 182.27 2.15, 184.05 3.49" stroke="#2f9e44" stroke-width="1" fill="none"></path></g><g transform="translate(3509.3208551377643 1510.6330989104763) rotate(0 47.78998565673828 22.5)"><text x="47.78998565673828" y="0" font-family="Virgil, Segoe UI Emoji" font-size="36px" fill="#2f9e44" text-anchor="middle" style="white-space: pre;" direction="ltr" dominant-baseline="text-before-edge">TYPE</text></g><g stroke-linecap="round"><g transform="translate(3007.4342167351756 848.4030077578691) rotate(0 2.2737367544323206e-13 345.7142857142853)"><path d="M0.69 -0.67 C0.4 114.32, -0.61 575.58, -0.76 690.84 M-0.4 1.59 C-0.4 116.65, 1.66 577.01, 1.55 692.06" stroke="#2f9e44" stroke-width="1" fill="none"></path></g></g><mask></mask><g stroke-linecap="round"><g transform="translate(3005.095238095238 846.7936507936483) rotate(0 150.00000000000045 0.714285714286234)"><path d="M-0.76 -0.59 C49.09 -0.33, 249.5 0.69, 299.8 0.89 M1.04 1.71 C50.66 2.19, 248.78 2.19, 298.75 2.15" stroke="#2f9e44" stroke-width="1" fill="none"></path></g></g><mask></mask><g stroke-linecap="round"><g transform="translate(3012.2380952380954 1009.6507936507924) rotate(0 155.71428571428555 -1.4285714285711038)"><path d="M-0.2 -0.53 C52 -1.05, 260.71 -3.23, 312.47 -3.68 M-1.77 1.8 C50.44 1.47, 259.66 -1.92, 312.07 -2.57" stroke="#2f9e44" stroke-width="1" fill="none"></path></g></g><mask></mask><g stroke-linecap="round"><g transform="translate(3010.8095238095243 1186.7936507936492) rotate(0 141.428571428572 0.7142857142857792)"><path d="M1.04 -0.82 C48.04 -0.56, 234.94 0.72, 281.78 1.05 M0.13 1.36 C47.5 1.84, 236.52 2.23, 283.93 2.38" stroke="#2f9e44" stroke-width="1" fill="none"></path></g></g><mask></mask><g stroke-linecap="round"><g transform="translate(3007.952380952381 1361.079365079363) rotate(0 139.28571428571468 -0.7142857142853245)"><path d="M-1.08 -0.38 C45.05 -0.54, 231.17 -1.73, 277.81 -1.76 M0.56 -1.63 C46.98 -1.54, 233.87 -0.26, 280.13 -0.39" stroke="#2f9e44" stroke-width="1" fill="none"></path></g></g><mask></mask><g stroke-linecap="round"><g transform="translate(3009.3809523809527 1538.2222222222208) rotate(0 141.42857142857156 -2.142857142856883)"><path d="M-0.76 -0.33 C46.6 -0.83, 235.76 -2.58, 283.06 -3.38 M1.05 -1.54 C48.36 -2.34, 235.33 -4.58, 282.22 -5.03" stroke="#2f9e44" stroke-width="1" fill="none"></path></g></g><mask></mask><g stroke-linecap="round"><g transform="translate(2742.619047619048 1180.484126984129) rotate(0 132.1428571428571 3.035714285713766)"><path d="M0.24 -1.06 C44.12 -0.22, 219.83 4.11, 263.67 5.38 M-1.09 0.99 C43.15 1.95, 221.6 5.97, 266.06 6.55" stroke="#2f9e44" stroke-width="1" fill="none"></path></g></g><mask></mask><g stroke-linecap="round"><g transform="translate(2098.119047619048 1189.484126984129) rotate(0 104.14285714285711 -0.964285714286234)"><path d="M0.25 0.46 C35.1 0.29, 174.33 -1.63, 209.05 -2.02 M-1.08 -0.35 C33.68 -0.22, 173.67 -0.5, 208.51 -0.54" stroke="#2f9e44" stroke-width="1" fill="none"></path></g></g><mask></mask><g stroke-linecap="round"><g transform="translate(1535.1190476190482 1189.484126984129) rotate(0 104.14285714285711 -0.964285714286234)"><path d="M-0.87 0.02 C34.03 -0.3, 174.08 -2.02, 208.76 -2.31 M0.88 -1.01 C35.71 -1.13, 173.28 -1.09, 208.06 -0.98" stroke="#2f9e44" stroke-width="1" fill="none"></path></g></g><mask></mask><g transform="translate(1632.8095238095243 1135.7936507936492) rotate(0 20.82598876953125 22.5)"><text x="0" y="0" font-family="Virgil, Segoe UI Emoji" font-size="36px" fill="#2f9e44" text-anchor="start" style="white-space: pre;" direction="ltr" dominant-baseline="text-before-edge">1:N</text></g><g transform="translate(2203.8095238095243 1146.7936507936492) rotate(0 20.82598876953125 22.5)"><text x="0" y="0" font-family="Virgil, Segoe UI Emoji" font-size="36px" fill="#2f9e44" text-anchor="start" style="white-space: pre;" direction="ltr" dominant-baseline="text-before-edge">1:N</text></g><g transform="translate(1888.8095238095243 1360.7936507936492) rotate(0 29.735984802246094 22.5)"><text x="0" y="0" font-family="Virgil, Segoe UI Emoji" font-size="36px" fill="#2f9e44" text-anchor="start" style="white-space: pre;" direction="ltr" dominant-baseline="text-before-edge">N:M</text></g><g stroke-linecap="round"><g transform="translate(1916.8809523809537 1034.5714285714284) rotate(0 -0.7142857142857792 -125)"><path d="M-0.17 0.93 C-0.19 -40.86, -0.83 -208.94, -1.03 -250.67 M-1.72 0.37 C-1.78 -41.28, -1.71 -207.5, -1.77 -249.48" stroke="#2f9e44" stroke-width="1" fill="none"></path></g></g><mask></mask><g stroke-linecap="round"><g transform="translate(1662.5952380952394 791.7142857142862) rotate(0 253.5714285714282 -3.5714285714284415)"><path d="M-0.77 0.65 C83.85 -0.49, 423.06 -5.99, 507.52 -7.39 M1.03 -0.06 C85.55 -0.96, 422.22 -4.87, 506.77 -5.98" stroke="#2f9e44" stroke-width="1" fill="none"></path></g></g><mask></mask><g stroke-linecap="round"><g transform="translate(2168.3095238095243 786.0000000000009) rotate(0 0 -110.71428571428532)"><path d="M-0.68 1.2 C-0.8 -35.79, -0.25 -183.61, -0.16 -220.69 M1.16 0.78 C0.82 -36.04, -0.84 -185.65, -1.19 -222.43" stroke="#2f9e44" stroke-width="1" fill="none"></path></g></g><mask></mask><g stroke-linecap="round"><g transform="translate(1662.59523809524 791.7142857142862) rotate(0 -0.7142857142860066 -111.4285714285711)"><path d="M-0.22 -0.7 C-0.39 -37.93, -0.43 -186.76, -0.52 -223.91 M-1.79 1.55 C-2.09 -35.52, -1.1 -185.55, -1 -222.93" stroke="#2f9e44" stroke-width="1" fill="none"></path></g></g><mask></mask><g stroke-linecap="round" transform="translate(1964.0238095238087 424.57142857142844) rotate(0 195.71428571428578 70)"><path d="M259.72 4.17 C278.83 5.43, 297.27 10.6, 313.58 14.9 C329.88 19.2, 345.91 24.17, 357.55 29.97 C369.18 35.77, 377.67 42.79, 383.39 49.69 C389.12 56.59, 392.53 64.23, 391.89 71.39 C391.26 78.54, 386.19 85.95, 379.6 92.63 C373 99.31, 364.33 105.63, 352.33 111.47 C340.33 117.31, 324.36 123.43, 307.6 127.68 C290.83 131.93, 271.01 134.89, 251.74 136.97 C232.48 139.05, 212.06 140.44, 192.01 140.17 C171.97 139.89, 150.66 137.89, 131.49 135.33 C112.32 132.77, 93.25 129.16, 76.99 124.81 C60.72 120.46, 45.37 114.97, 33.91 109.25 C22.46 103.53, 13.97 97.46, 8.27 90.51 C2.56 83.56, -0.89 74.76, -0.34 67.55 C0.21 60.35, 4.72 53.81, 11.56 47.28 C18.39 40.75, 28.68 34.23, 40.67 28.36 C52.66 22.49, 66.92 16.44, 83.49 12.05 C100.07 7.67, 120.52 4.16, 140.1 2.05 C159.69 -0.06, 178.68 -1.31, 201.01 -0.63 C223.34 0.04, 260.13 4.63, 274.1 6.09 C288.06 7.55, 286.21 7.25, 284.8 8.14 M132.37 2.92 C149.14 -0.22, 171.91 0.8, 191.94 1.07 C211.96 1.34, 233.09 2.63, 252.51 4.54 C271.93 6.44, 291.89 8.54, 308.47 12.51 C325.04 16.47, 339.87 22.61, 351.96 28.33 C364.05 34.05, 374.5 39.86, 380.99 46.83 C387.49 53.79, 390.71 62.59, 390.91 70.12 C391.12 77.65, 388.25 85.21, 382.2 92.02 C376.16 98.83, 365.88 105.24, 354.64 110.97 C343.4 116.7, 330.43 122.12, 314.77 126.41 C299.11 130.7, 280.12 134.19, 260.68 136.7 C241.24 139.21, 218.73 141.51, 198.14 141.46 C177.56 141.4, 156.2 138.71, 137.16 136.37 C118.12 134.04, 100.06 131.73, 83.9 127.44 C67.74 123.15, 52.43 116.54, 40.21 110.63 C27.98 104.72, 17.47 98.73, 10.57 92 C3.67 85.27, -0.98 77.13, -1.2 70.26 C-1.42 63.39, 3.25 57.3, 9.26 50.78 C15.26 44.25, 23.11 37.07, 34.82 31.09 C46.53 25.11, 63.35 19.48, 79.51 14.88 C95.68 10.29, 122.64 4.97, 131.82 3.52 C140.99 2.07, 133.34 5.05, 134.55 6.18" stroke="#2f9e44" stroke-width="1" fill="none"></path></g><g transform="translate(2015.4523809523803 468.8571428571422) rotate(0 143.00994873046875 22.5)"><text x="0" y="0" font-family="Virgil, Segoe UI Emoji" font-size="36px" fill="#2f9e44" text-anchor="start" style="white-space: pre;" direction="ltr" dominant-baseline="text-before-edge">ID_INCIDENCE</text></g><g stroke-linecap="round" transform="translate(1478.309523809523 430.28571428571377) rotate(0 195.71428571428578 70)"><path d="M228.86 1.55 C248.43 1.75, 269.96 5.35, 287.85 8.6 C305.74 11.84, 322.12 15.95, 336.21 21.04 C350.3 26.13, 363.48 32.63, 372.38 39.13 C381.28 45.63, 386.87 52.72, 389.61 60.05 C392.35 67.39, 392.38 76.13, 388.81 83.14 C385.23 90.15, 377.69 95.91, 368.15 102.1 C358.6 108.29, 345.91 115.14, 331.55 120.26 C317.18 125.37, 299.96 129.5, 281.94 132.77 C263.91 136.04, 243.37 138.83, 223.39 139.86 C203.42 140.88, 181.95 140.29, 162.09 138.92 C142.24 137.55, 122.1 135.13, 104.26 131.65 C86.41 128.18, 69 123.1, 55 118.07 C41.01 113.04, 29.14 107.75, 20.28 101.45 C11.42 95.16, 4.66 87.68, 1.87 80.28 C-0.93 72.88, 0.11 64.41, 3.48 57.07 C6.86 49.72, 12.62 42.58, 22.12 36.2 C31.62 29.82, 45.72 23.74, 60.49 18.77 C75.25 13.8, 92.59 9.5, 110.69 6.38 C128.78 3.26, 144.67 0.69, 169.05 0.04 C193.42 -0.61, 238.41 0.93, 256.95 2.47 C275.5 4.01, 281.49 7.95, 280.32 9.3 M126.95 4.83 C144.22 1.53, 169.08 1.56, 189.36 1.06 C209.65 0.55, 229.42 0.09, 248.64 1.78 C267.86 3.47, 287.93 7.22, 304.68 11.21 C321.42 15.2, 336.64 20.06, 349.09 25.71 C361.53 31.36, 372.49 38.13, 379.33 45.1 C386.17 52.06, 389.3 60.22, 390.15 67.49 C391 74.75, 389.73 81.76, 384.42 88.69 C379.12 95.62, 369.43 103.18, 358.33 109.08 C347.23 114.98, 333.64 119.42, 317.83 124.06 C302.01 128.7, 282.5 134.24, 263.42 136.93 C244.34 139.62, 223.74 140.12, 203.36 140.23 C182.98 140.33, 160.79 139.62, 141.14 137.56 C121.5 135.5, 102.22 132.11, 85.5 127.85 C68.79 123.58, 53.22 117.46, 40.85 111.98 C28.49 106.5, 18.07 101.71, 11.33 94.95 C4.58 88.19, 1.26 78.62, 0.37 71.41 C-0.51 64.2, 0.61 58.22, 6.02 51.7 C11.43 45.18, 21.25 38.28, 32.83 32.32 C44.4 26.36, 59.59 20.84, 75.46 15.94 C91.33 11.05, 118.89 4.77, 128.03 2.94 C137.18 1.12, 129.03 3.64, 130.31 4.99" stroke="#2f9e44" stroke-width="1" fill="none"></path></g><g transform="translate(1530.7380952380945 474.57142857142753) rotate(0 133.93795776367188 22.5)"><text x="0" y="0" font-family="Virgil, Segoe UI Emoji" font-size="36px" fill="#2f9e44" text-anchor="start" style="white-space: pre;" direction="ltr" dominant-baseline="text-before-edge">ID_EMPLOYEE</text></g><g stroke-linecap="round"><g transform="translate(822.6190476190482 1188.817460317462) rotate(0 135.47619047619048 -1.130952380952749)"><path d="M0.68 0.73 C45.56 0.18, 225.08 -2.48, 270.02 -3.1 M-0.43 0.06 C44.76 -0.36, 227.3 -1.65, 272.24 -2" stroke="#2f9e44" stroke-width="1" fill="none"></path></g></g><mask></mask><g stroke-linecap="round" transform="translate(32.14285714285779 849.2936507936502) rotate(0 248.33333333333348 79.5795454545455)"><path d="M341.96 5.63 C363.81 7.14, 384.15 13.53, 402.38 18.31 C420.6 23.09, 437.9 28.24, 451.3 34.31 C464.7 40.38, 475.33 47.72, 482.77 54.74 C490.22 61.77, 494.86 69.14, 495.98 76.46 C497.1 83.78, 495.09 91.32, 489.49 98.67 C483.89 106.02, 474.26 114.02, 462.38 120.55 C450.5 127.08, 435.3 132.85, 418.22 137.84 C401.14 142.83, 380.7 147.26, 359.9 150.48 C339.1 153.7, 316.32 155.77, 293.43 157.18 C270.53 158.6, 245.72 159.56, 222.52 158.99 C199.32 158.42, 175.73 156.64, 154.23 153.77 C132.72 150.89, 111.74 146.38, 93.5 141.72 C75.26 137.05, 58.26 131.9, 44.77 125.79 C31.28 119.68, 20.16 112.17, 12.57 105.07 C4.98 97.96, 0.04 90.75, -0.75 83.15 C-1.54 75.55, 2.05 66.72, 7.81 59.47 C13.58 52.22, 22.04 46.09, 33.84 39.63 C45.64 33.16, 61.7 25.71, 78.59 20.7 C95.49 15.69, 114.3 12.97, 135.2 9.58 C156.1 6.19, 181.03 1.84, 203.98 0.34 C226.92 -1.16, 247.37 -0.51, 272.86 0.59 C298.36 1.69, 341.29 5.1, 356.98 6.93 C372.66 8.76, 368.87 10.06, 366.95 11.58 M179.39 4.2 C199.44 0.76, 225.18 -0.71, 248.86 -1.05 C272.53 -1.38, 298.66 0.03, 321.43 2.18 C344.21 4.34, 366.11 7.57, 385.5 11.87 C404.89 16.18, 422.79 21.96, 437.78 28.01 C452.76 34.05, 465.78 41.54, 475.42 48.14 C485.05 54.74, 492.59 60.6, 495.59 67.59 C498.59 74.58, 497.12 82.52, 493.4 90.07 C489.67 97.62, 483.06 105.95, 473.23 112.89 C463.41 119.82, 450.09 126.06, 434.47 131.66 C418.85 137.26, 399.05 142.15, 379.52 146.48 C360 150.8, 339.38 155.42, 317.32 157.6 C295.25 159.78, 270.53 160.03, 247.11 159.58 C223.69 159.12, 199.22 157.31, 176.81 154.86 C154.4 152.41, 132.21 148.77, 112.67 144.89 C93.14 141.01, 74.56 137.18, 59.59 131.59 C44.61 126.01, 32.36 118.05, 22.84 111.38 C13.31 104.72, 5.56 99.09, 2.45 91.61 C-0.65 84.12, 0.92 74.16, 4.19 66.46 C7.45 58.76, 12.49 52.13, 22.06 45.39 C31.63 38.65, 45.84 31.34, 61.61 26.02 C77.38 20.71, 96.79 17.43, 116.67 13.51 C136.55 9.59, 169.82 4.06, 180.88 2.5 C191.95 0.94, 181.86 2.99, 183.06 4.17" stroke="#2f9e44" stroke-width="1" fill="none"></path></g><g transform="translate(129.21411182821157 903.7042327408162) rotate(0 151.1638946533203 25.397727272727025)"><text x="151.1638946533203" y="0" font-family="Virgil, Segoe UI Emoji" font-size="40.63636363636357px" fill="#2f9e44" text-anchor="middle" style="white-space: pre;" direction="ltr" dominant-baseline="text-before-edge">ID_EMPLOYEE</text></g><g stroke-linecap="round"><g transform="translate(122.44588744588782 960.2911255411254) rotate(0 161.79292929292967 -0.9406565656568091)"><path d="M-0.98 -0.15 C53.02 -0.18, 270.62 -0.72, 324.76 -1.14 M0.7 -1.27 C54.58 -1.56, 270.68 -2.79, 324.43 -2.87" stroke="#2f9e44" stroke-width="1" fill="none"></path></g></g><mask></mask><g stroke-linecap="round" transform="translate(46.06720702465191 1020.460317460318) rotate(0 242.20449172576923 63.833333333333485)"><path d="M312.59 3.64 C334.33 4.36, 356.08 7.61, 375.05 10.59 C394.02 13.58, 411.77 16.95, 426.39 21.55 C441.01 26.16, 453.55 32.69, 462.75 38.23 C471.95 43.77, 478.38 48.75, 481.6 54.78 C484.81 60.81, 485.31 68.38, 482.02 74.4 C478.73 80.42, 471.57 85.76, 461.86 90.91 C452.15 96.07, 438.73 100.91, 423.75 105.33 C408.78 109.76, 391.23 114.27, 372.02 117.47 C352.8 120.66, 330.28 122.65, 308.45 124.48 C286.61 126.31, 263.84 128.38, 241 128.43 C218.16 128.49, 193.28 126.55, 171.41 124.82 C149.54 123.08, 128.65 121.19, 109.76 118.02 C90.88 114.85, 72.89 110.35, 58.1 105.79 C43.31 101.22, 30.47 96.22, 21.02 90.63 C11.57 85.04, 4.38 78.21, 1.39 72.24 C-1.59 66.27, -0.49 60.61, 3.12 54.82 C6.73 49.02, 13.57 43.02, 23.06 37.47 C32.55 31.92, 45.05 26.28, 60.07 21.52 C75.08 16.76, 93.7 12.24, 113.15 8.9 C132.59 5.56, 154.75 3.05, 176.74 1.48 C198.73 -0.08, 221.84 -0.81, 245.09 -0.5 C268.34 -0.2, 303.62 2.51, 316.24 3.32 C328.86 4.13, 322.06 3.32, 320.8 4.34 M285.85 0.76 C307.93 0.82, 330.56 5.45, 351.06 8 C371.57 10.55, 392.07 11.97, 408.88 16.07 C425.69 20.17, 440.6 27.47, 451.92 32.61 C463.24 37.74, 471.27 41.07, 476.79 46.88 C482.31 52.68, 486.08 61.37, 485.04 67.45 C484 73.52, 477.84 77.62, 470.55 83.31 C463.26 89, 453.98 96.37, 441.3 101.59 C428.62 106.82, 412.19 111.12, 394.45 114.67 C376.72 118.21, 355.95 120.54, 334.89 122.84 C313.82 125.15, 290.99 128.03, 268.07 128.49 C245.16 128.96, 220.09 126.89, 197.4 125.66 C174.7 124.43, 151.88 123.4, 131.91 121.11 C111.95 118.82, 94.06 115.86, 77.6 111.92 C61.14 107.98, 44.71 102.63, 33.16 97.45 C21.6 92.27, 13.53 87.08, 8.28 80.83 C3.03 74.57, 0.8 66.1, 1.66 59.92 C2.51 53.74, 6.3 48.99, 13.43 43.74 C20.55 38.49, 31.5 33.44, 44.38 28.42 C57.27 23.39, 73.22 17.43, 90.74 13.58 C108.27 9.74, 128.56 7.65, 149.56 5.34 C170.55 3.02, 193.88 0.49, 216.71 -0.3 C239.54 -1.09, 275.36 0.23, 286.53 0.59 C297.69 0.95, 284.32 0.95, 283.69 1.85" stroke="#2f9e44" stroke-width="1" fill="none"></path></g><g transform="translate(201.0031327148472 1063.7843275023788) rotate(0 87.5041275024414 20.372340425532002)"><text x="87.5041275024414" y="0" font-family="Virgil, Segoe UI Emoji" font-size="32.59574468085114px" fill="#2f9e44" text-anchor="middle" style="white-space: pre;" direction="ltr" dominant-baseline="text-before-edge">IS_ADMIN</text></g><g stroke-linecap="round" transform="translate(20.309017223908086 1192.3650793650804) rotate(0 259.36930091185536 68.35714285714312)"><path d="M173.91 2.91 C194.2 0.09, 220.4 0.95, 244.58 0.8 C268.76 0.64, 295.26 0.54, 318.98 1.98 C342.7 3.42, 365.87 6.18, 386.89 9.44 C407.91 12.69, 428.11 16.86, 445.11 21.52 C462.1 26.18, 477.34 31.71, 488.87 37.39 C500.4 43.08, 509.49 49.57, 514.29 55.63 C519.1 61.69, 520.12 67.56, 517.71 73.77 C515.3 79.98, 508.64 86.65, 499.82 92.89 C491 99.14, 479.4 106.26, 464.78 111.24 C450.16 116.23, 431.99 119.2, 412.11 122.81 C392.22 126.41, 368.75 130.57, 345.47 132.88 C322.18 135.19, 296.49 136.35, 272.37 136.65 C248.26 136.96, 224.4 136.23, 200.78 134.72 C177.16 133.21, 152.03 130.85, 130.64 127.57 C109.25 124.3, 89.41 119.53, 72.44 115.07 C55.46 110.62, 40.02 106.41, 28.8 100.85 C17.58 95.29, 9.71 88.19, 5.13 81.72 C0.55 75.25, -0.93 68.48, 1.33 62.03 C3.6 55.57, 9.95 48.82, 18.73 43 C27.51 37.18, 39.06 32.04, 54.02 27.1 C68.97 22.16, 83.65 17.63, 108.45 13.35 C133.24 9.07, 181.61 3.3, 202.79 1.41 C223.97 -0.48, 234.49 0.76, 235.51 2.03 M226.75 -0.79 C249.32 -2.22, 278.36 1.29, 302.69 2.34 C327.02 3.4, 351.21 2.86, 372.72 5.53 C394.23 8.2, 413.9 14.09, 431.77 18.38 C449.63 22.67, 466.87 25.75, 479.92 31.26 C492.97 36.76, 503.74 45.18, 510.06 51.4 C516.37 57.61, 518.32 62.43, 517.83 68.55 C517.33 74.68, 514.12 81.91, 507.08 88.14 C500.04 94.37, 489.07 100.59, 475.59 105.94 C462.12 111.3, 445.26 116.16, 426.23 120.26 C407.2 124.37, 383.95 128.18, 361.41 130.59 C338.88 133, 314.97 133.75, 291 134.73 C267.03 135.71, 241.55 137.15, 217.58 136.46 C193.62 135.76, 169.04 133.39, 147.22 130.54 C125.39 127.68, 104.68 123.79, 86.65 119.32 C68.62 114.86, 51.77 109, 39.04 103.73 C26.32 98.47, 16.98 93.98, 10.3 87.74 C3.61 81.5, -1.28 72.96, -1.07 66.31 C-0.85 59.67, 4.05 53.89, 11.6 47.85 C19.15 41.82, 30.35 35.31, 44.22 30.1 C58.08 24.89, 76.02 20.84, 94.77 16.57 C113.52 12.3, 134.34 7.05, 156.72 4.49 C179.09 1.93, 217.21 1.77, 229.01 1.22 C240.82 0.68, 227.02 0.21, 227.55 1.23" stroke="#2f9e44" stroke-width="1" fill="none"></path></g><g transform="translate(231.96353071873182 1239.0703135429076) rotate(0 47.81299591064453 21.816109422492445)"><text x="47.81299591064453" y="0" font-family="Virgil, Segoe UI Emoji" font-size="34.905775075987975px" fill="#2f9e44" text-anchor="middle" style="white-space: pre;" direction="ltr" dominant-baseline="text-before-edge">NAME</text></g><g stroke-linecap="round" transform="translate(10 1368.5555555555575) rotate(0 267.5000000000002 70.5)"><path d="M195.5 2.44 C216.2 -0.49, 242.44 -0.85, 266.55 -0.69 C290.65 -0.54, 316.72 1.61, 340.13 3.37 C363.55 5.13, 386.54 6.69, 407.02 9.86 C427.5 13.03, 446.72 17.86, 463.02 22.4 C479.31 26.93, 493.84 31.55, 504.78 37.06 C515.71 42.56, 523.72 49.15, 528.63 55.45 C533.55 61.75, 535.82 68.53, 534.26 74.85 C532.71 81.16, 527.2 87.16, 519.29 93.33 C511.39 99.51, 500.74 106.52, 486.82 111.91 C472.89 117.29, 454.53 121.66, 435.76 125.64 C416.98 129.62, 396.22 133.24, 374.17 135.78 C352.12 138.33, 327.23 140.05, 303.43 140.91 C279.63 141.77, 255.22 142.05, 231.37 140.96 C207.52 139.86, 182.51 136.83, 160.33 134.32 C138.15 131.8, 116.86 129.6, 98.28 125.87 C79.7 122.14, 62.49 117.2, 48.86 111.94 C35.23 106.69, 24.54 100.46, 16.51 94.36 C8.48 88.25, 2.58 81.82, 0.68 75.32 C-1.22 68.83, 0.19 61.55, 5.11 55.41 C10.03 49.26, 18.97 44.1, 30.21 38.44 C41.46 32.79, 56.35 26.27, 72.57 21.48 C88.79 16.68, 106.26 12.94, 127.53 9.68 C148.8 6.42, 186.87 3.06, 200.19 1.94 C213.52 0.82, 206.49 1.69, 207.47 2.96 M342.28 3.25 C365.73 3.71, 390.66 6.68, 411.1 9.83 C431.54 12.98, 448.77 17.42, 464.93 22.15 C481.09 26.88, 497.42 32.16, 508.06 38.2 C518.7 44.23, 524.44 52.1, 528.78 58.34 C533.12 64.59, 536.06 69.6, 534.1 75.65 C532.14 81.7, 525.19 88.48, 516.99 94.65 C508.79 100.82, 498.94 107.35, 484.9 112.68 C470.86 118.01, 451.68 122.87, 432.74 126.66 C413.79 130.45, 393.4 133.11, 371.23 135.41 C349.05 137.7, 323.51 139.8, 299.67 140.42 C275.83 141.04, 252.07 140.09, 228.16 139.12 C204.26 138.15, 178.43 136.82, 156.23 134.59 C134.04 132.36, 113.4 129.68, 95.01 125.77 C76.62 121.86, 59.43 116.46, 45.87 111.14 C32.31 105.82, 21.22 100.15, 13.65 93.86 C6.07 87.57, 1.55 79.6, 0.43 73.39 C-0.7 67.19, 1.57 62.62, 6.88 56.63 C12.19 50.64, 20.75 43.08, 32.27 37.45 C43.79 31.83, 59.41 27.52, 76.01 22.88 C92.6 18.25, 111.4 13.24, 131.85 9.64 C152.29 6.04, 175.34 2.92, 198.67 1.29 C222.01 -0.34, 247.94 -0.26, 271.85 -0.14 C295.76 -0.02, 330.75 1.12, 342.15 2.01 C353.55 2.9, 341.2 3.68, 340.26 5.21" stroke="#2f9e44" stroke-width="1" fill="none"></path></g><g transform="translate(179.01496691638772 1416.7045274819056) rotate(0 98.33396911621094 22.5)"><text x="98.33396911621094" y="0" font-family="Virgil, Segoe UI Emoji" font-size="36px" fill="#2f9e44" text-anchor="middle" style="white-space: pre;" direction="ltr" dominant-baseline="text-before-edge">PASSWORD</text></g><g stroke-linecap="round"><g transform="translate(827.1961214970811 928.8791982340599) rotate(0 -3.7499999999997726 256.9642857142853)"><path d="M-0.23 -0.4 C-1.2 85.14, -5.41 427.3, -6.43 513.14 M-1.81 -1.66 C-2.79 84.02, -6.03 428.54, -6.81 514.26" stroke="#2f9e44" stroke-width="1" fill="none"></path></g></g><mask></mask><g stroke-linecap="round"><g transform="translate(529.142857142858 922.9841269841245) rotate(0 150.00000000000045 0.714285714286234)"><path d="M-0.09 1.1 C49.82 1.21, 250.18 0.61, 300.37 0.58 M-1.6 0.63 C48.11 0.89, 249.21 1.45, 299.62 1.67" stroke="#2f9e44" stroke-width="1" fill="none"></path></g></g><mask></mask><g stroke-linecap="round"><g transform="translate(509.14285714285825 1092.9841269841263) rotate(0 155.71428571428555 -1.4285714285711038)"><path d="M1.11 0.67 C52.99 0.21, 260.33 -2.28, 312.08 -2.71 M0.23 -0.02 C51.94 -0.27, 259.69 -0.48, 311.48 -1.09" stroke="#2f9e44" stroke-width="1" fill="none"></path></g></g><mask></mask><g stroke-linecap="round"><g transform="translate(542.0000000000014 1272.9841269841263) rotate(0 141.428571428572 0.7142857142857792)"><path d="M1.19 -1.18 C48.33 -1.09, 236.25 1.51, 283.1 1.76 M0.35 0.81 C47.33 1.04, 235.47 -0.24, 282.29 -0.19" stroke="#2f9e44" stroke-width="1" fill="none"></path></g></g><mask></mask><g stroke-linecap="round"><g transform="translate(546.2857142857156 1441.5555555555538) rotate(0 139.28571428571468 -0.7142857142853245)"><path d="M0.69 -0.53 C47.32 -0.56, 233.26 -0.98, 279.53 -1.29 M-0.41 1.8 C46.18 2.09, 232.78 0.88, 279.09 0.31" stroke="#2f9e44" stroke-width="1" fill="none"></path></g></g><mask></mask><g transform="translate(1529.9268718901194 10) rotate(0 395.2575556437148 117.73899437294813)"><text x="395.25755564371485" y="0" font-family="Virgil, Segoe UI Emoji" font-size="62.794130332238986px" fill="#2f9e44" text-anchor="middle" style="white-space: pre;" direction="ltr" dominant-baseline="text-before-edge">RELATIONSHIP-ENTITY </text><text x="395.25755564371485" y="78.49266291529874" font-family="Virgil, Segoe UI Emoji" font-size="62.794130332238986px" fill="#2f9e44" text-anchor="middle" style="white-space: pre;" direction="ltr" dominant-baseline="text-before-edge"></text><text x="395.25755564371485" y="156.98532583059747" font-family="Virgil, Segoe UI Emoji" font-size="62.794130332238986px" fill="#2f9e44" text-anchor="middle" style="white-space: pre;" direction="ltr" dominant-baseline="text-before-edge">DIAGRAM</text></g></svg>