<svg version="1.1" xmlns="http://www.w3.org/2000/svg" viewBox="0 0 3934.08705926399 2490.2570361760227" width="3934.08705926399" height="2490.2570361760227" filter="invert(93%) hue-rotate(180deg)">
  <!-- svg-source:excalidraw -->
  
  <defs>
    <style class="style-fonts">
      @font-face {
        font-family: "Virgil";
        src: url("https://excalidraw.com/Virgil.woff2");
      }
      @font-face {
        font-family: "Cascadia";
        src: url("https://excalidraw.com/Cascadia.woff2");
      }
      @font-face {
        font-family: "Assistant";
        src: url("https://excalidraw.com/Assistant-Regular.woff2");
      }
    </style>
    
  </defs>
  <rect x="0" y="0" width="3934.08705926399" height="2490.2570361760227" fill="#f8f9fa"></rect><g transform="translate(1477.73826938731 10) rotate(0 377.5948791503906 81.11410788285775)"><text x="0" y="0" font-family="Virgil, Segoe UI Emoji" font-size="129.78257261257235px" fill="#2f9e44" text-anchor="start" style="white-space: pre;" direction="ltr" dominant-baseline="text-before-edge">USER FLOW</text></g><g transform="translate(73.27042010743924 1313.3994623347971) rotate(0 63.899993896484375 22.5)"><text x="0" y="0" font-family="Virgil, Segoe UI Emoji" font-size="36px" fill="#2f9e44" text-anchor="start" style="white-space: pre;" direction="ltr" dominant-baseline="text-before-edge">START</text></g><g stroke-linecap="round" transform="translate(10 1254.0226065416618) rotate(0 113.88675619339057 79.33137290394279)"><path d="M75.98 3.88 C88.51 -0.53, 106.18 -1.33, 120.56 -0.77 C134.93 -0.22, 149.09 2.63, 162.24 7.2 C175.4 11.78, 189.76 19.03, 199.48 26.68 C209.21 34.33, 215.89 43.58, 220.58 53.09 C225.27 62.6, 228.37 73.71, 227.64 83.73 C226.91 93.76, 222.39 104.01, 216.21 113.27 C210.04 122.53, 201.19 132.52, 190.59 139.3 C180 146.08, 166.36 150.62, 152.65 153.95 C138.95 157.29, 123.14 159.86, 108.38 159.31 C93.62 158.77, 77.39 155.31, 64.09 150.68 C50.79 146.05, 38.06 138.94, 28.58 131.53 C19.09 124.12, 11.92 115.74, 7.17 106.23 C2.43 96.72, -0.54 84.58, 0.11 74.45 C0.77 64.33, 4.74 54.5, 11.1 45.48 C17.46 36.46, 26.31 27.52, 38.29 20.33 C50.26 13.14, 74.01 5.3, 82.96 2.34 C91.92 -0.61, 91.48 1.38, 92.02 2.61 M118.13 1.31 C131.96 0.51, 145.97 3.69, 159.26 7.42 C172.54 11.15, 187.64 16.46, 197.84 23.69 C208.05 30.93, 215.58 40.98, 220.47 50.81 C225.37 60.64, 227.55 72.52, 227.23 82.68 C226.91 92.84, 224.64 102.64, 218.56 111.77 C212.48 120.9, 201.34 130.51, 190.76 137.46 C180.17 144.41, 168.29 149.86, 155.04 153.46 C141.8 157.07, 126.05 159.28, 111.29 159.09 C96.53 158.9, 79.69 156.4, 66.46 152.32 C53.23 148.24, 41.54 142.25, 31.91 134.59 C22.28 126.93, 14 115.89, 8.68 106.35 C3.36 96.8, -0.07 87.28, -0.02 77.32 C0.03 67.35, 2.82 55.87, 8.96 46.57 C15.1 37.27, 26.25 28.62, 36.82 21.51 C47.4 14.39, 58.87 7.49, 72.4 3.88 C85.94 0.26, 110.38 0.31, 118.04 -0.17 C125.71 -0.66, 118.43 -0.31, 118.4 0.96" stroke="#2f9e44" stroke-width="4" fill="none"></path></g><g stroke-linecap="round" transform="translate(378.9152187802995 1182.9650578056153) rotate(0 149.41553056141407 163.52970120076589)"><path d="M32 0 C86.49 -0.09, 142.01 -0.51, 266.83 0 M32 0 C83.98 -2.31, 135.48 -1.69, 266.83 0 M266.83 0 C288.47 -0.81, 298.22 11.87, 298.83 32 M266.83 0 C290.35 2.02, 298.39 12.02, 298.83 32 M298.83 32 C296.57 129.76, 298.59 230.89, 298.83 295.06 M298.83 32 C297.82 110.04, 297.53 187.01, 298.83 295.06 M298.83 295.06 C297.69 318.01, 286.97 326.65, 266.83 327.06 M298.83 295.06 C296.94 316.52, 286.69 326.47, 266.83 327.06 M266.83 327.06 C179.2 327.06, 89.17 325.9, 32 327.06 M266.83 327.06 C199.48 328.67, 130.56 328.92, 32 327.06 M32 327.06 C11.28 327.11, 0.68 317.01, 0 295.06 M32 327.06 C9.16 327.91, 1.11 317.49, 0 295.06 M0 295.06 C2.01 194.79, 1.41 97.83, 0 32 M0 295.06 C1.66 219.82, 1.88 144.44, 0 32 M0 32 C1.51 10.03, 9.34 1.82, 32 0 M0 32 C-0.6 11.35, 9.7 0.79, 32 0" stroke="#2f9e44" stroke-width="4" fill="none"></path></g><g transform="translate(459.4686416403565 1287.2509478203665) rotate(0 60.983985900878906 45)"><text x="0" y="0" font-family="Virgil, Segoe UI Emoji" font-size="36px" fill="#2f9e44" text-anchor="start" style="white-space: pre;" direction="ltr" dominant-baseline="text-before-edge">HOME</text><text x="0" y="45" font-family="Virgil, Segoe UI Emoji" font-size="36px" fill="#2f9e44" text-anchor="start" style="white-space: pre;" direction="ltr" dominant-baseline="text-before-edge">PAGES</text></g><g stroke-linecap="round"><g transform="translate(234.97874737774993 1335.7874571420452) rotate(0 67.16398442174315 -0.4866955392881209)"><path d="M0.71 -0.35 C22.97 -0.51, 111.43 -1.39, 133.65 -1.33 M-0.38 -1.58 C22.27 -1.53, 113.75 0.06, 136.01 0.02" stroke="#2f9e44" stroke-width="4" fill="none"></path></g><g transform="translate(234.97874737774993 1335.7874571420452) rotate(0 67.16398442174315 -0.4866955392881209)"><path d="M112.44 8.35 C119.12 4.52, 126.36 2.63, 136.01 0.02 M112.44 8.35 C122.23 5.02, 130.31 2.44, 136.01 0.02" stroke="#2f9e44" stroke-width="4" fill="none"></path></g><g transform="translate(234.97874737774993 1335.7874571420452) rotate(0 67.16398442174315 -0.4866955392881209)"><path d="M112.59 -8.75 C119.17 -7.32, 126.36 -3.96, 136.01 0.02 M112.59 -8.75 C122.48 -5.58, 130.49 -1.67, 136.01 0.02" stroke="#2f9e44" stroke-width="4" fill="none"></path></g></g><mask></mask><g stroke-linecap="round"><g transform="translate(682.6132352960077 1342.615163980874) rotate(0 104.31581399594609 2.2174776296160417)"><path d="M0.05 0.55 C34.87 1.17, 173.1 3.46, 207.84 4.06 M-1.39 -0.21 C33.92 0.56, 175.3 4.48, 210.14 5.4" stroke="#2f9e44" stroke-width="4" fill="none"></path></g><g transform="translate(682.6132352960077 1342.615163980874) rotate(0 104.31581399594609 2.2174776296160417)"><path d="M186.42 13.31 C192.26 10.34, 195.66 9.77, 210.14 5.4 M186.42 13.31 C191.98 11.04, 199.16 8.86, 210.14 5.4" stroke="#2f9e44" stroke-width="4" fill="none"></path></g><g transform="translate(682.6132352960077 1342.615163980874) rotate(0 104.31581399594609 2.2174776296160417)"><path d="M186.89 -3.78 C192.67 -3.19, 195.97 -0.21, 210.14 5.4 M186.89 -3.78 C192.47 -1.3, 199.52 1.27, 210.14 5.4" stroke="#2f9e44" stroke-width="4" fill="none"></path></g></g><mask></mask><g stroke-linecap="round" transform="translate(880.510207446176 1211.193399084319) rotate(0 197.5983889509256 132.38118668633433)"><path d="M247.5 33.25 C275.28 53.08, 303.91 71.46, 345.7 99.75 M247.5 33.25 C285.35 58.2, 322.91 83.43, 345.7 99.75 M345.7 99.75 C394.09 131.73, 396.88 131.57, 345.7 166.25 M345.7 99.75 C393.96 134.75, 395.37 132.16, 345.7 166.25 M345.7 166.25 C316.57 184.99, 287.14 205.98, 247.5 231.51 M345.7 166.25 C323.46 181.59, 298.41 196.79, 247.5 231.51 M247.5 231.51 C198.04 263.28, 198.38 263.76, 148.5 231.51 M247.5 231.51 C199.08 266.35, 200.2 264.87, 148.5 231.51 M148.5 231.51 C117.89 211.98, 90.45 196.14, 49.5 166.25 M148.5 231.51 C121.54 214.57, 93.27 195.74, 49.5 166.25 M49.5 166.25 C1.41 133.93, 0.75 131.61, 49.5 99.75 M49.5 166.25 C2.27 133.28, -0.38 132.12, 49.5 99.75 M49.5 99.75 C78.6 79.02, 105.23 60.17, 148.5 33.25 M49.5 99.75 C77.63 80.55, 106.1 61.44, 148.5 33.25 M148.5 33.25 C197.32 -0.19, 198.08 0.67, 247.5 33.25 M148.5 33.25 C199.75 1.76, 198.43 -1.14, 247.5 33.25" stroke="#2f9e44" stroke-width="4" fill="none"></path></g><g transform="translate(1018.8554224294513 1320.8839924274862) rotate(0 59.4539794921875 22.5)"><text x="59.4539794921875" y="0" font-family="Virgil, Segoe UI Emoji" font-size="36px" fill="#2f9e44" text-anchor="middle" style="white-space: pre;" direction="ltr" dominant-baseline="text-before-edge">LOGIN</text></g><g stroke-linecap="round"><g transform="translate(1237.9130945873371 1311.4285864697194) rotate(0 202.87278089364202 -118.37033679692331)"><path d="M-0.28 0.54 C67.49 -38.86, 338.65 -197.24, 406.3 -236.92 M1.78 -0.23 C69.47 -39.39, 338.47 -196.07, 405.64 -235.48" stroke="#2f9e44" stroke-width="4" fill="none"></path></g><g transform="translate(1237.9130945873371 1311.4285864697194) rotate(0 202.87278089364202 -118.37033679692331)"><path d="M407 -237.14 L398.66 -222.34 L389.93 -232.36 L404.73 -235.27" stroke="none" stroke-width="0" fill="#2f9e44" fill-rule="evenodd"></path><path d="M405.64 -235.48 C403.93 -231.45, 400.71 -228.94, 397.1 -223.15 M405.64 -235.48 C403.53 -231.94, 401.97 -230.5, 397.1 -223.15 M397.1 -223.15 C395.27 -226.17, 393.62 -229.11, 390.7 -234.09 M397.1 -223.15 C394.97 -226.18, 392.94 -228.83, 390.7 -234.09 M390.7 -234.09 C396.82 -235.75, 403.22 -235.56, 405.64 -235.48 M390.7 -234.09 C393.9 -234.73, 397.27 -234.23, 405.64 -235.48 M405.64 -235.48 C405.64 -235.48, 405.64 -235.48, 405.64 -235.48 M405.64 -235.48 C405.64 -235.48, 405.64 -235.48, 405.64 -235.48" stroke="#2f9e44" stroke-width="4" fill="none"></path></g></g><mask></mask><g stroke-linecap="round"><g transform="translate(1273.1727523821578 1334.9086651086536) rotate(0 176.16162692449325 -2.0635369064680162)"><path d="M0.71 0.45 C59.14 -0.07, 292.65 -3.15, 351.23 -3.91 M-0.38 -0.36 C58.35 -1.2, 294.75 -5.52, 353.37 -5.92" stroke="#2f9e44" stroke-width="4" fill="none"></path></g><g transform="translate(1273.1727523821578 1334.9086651086536) rotate(0 176.16162692449325 -2.0635369064680162)"><path d="M351.67 -5.55 L340.92 2.13 L339.9 -12.64 L351.77 -4.82" stroke="none" stroke-width="0" fill="#2f9e44" fill-rule="evenodd"></path><path d="M353.37 -5.92 C349.1 -4.89, 344 -1.37, 339.87 0.6 M353.37 -5.92 C348.95 -4.58, 345.67 -1.46, 339.87 0.6 M339.87 0.6 C339.7 -4.36, 340.32 -7.33, 339.7 -12.08 M339.87 0.6 C339.55 -2.71, 340.24 -5.68, 339.7 -12.08 M339.7 -12.08 C345.15 -8.59, 349.76 -8.64, 353.37 -5.92 M339.7 -12.08 C342.66 -10.98, 346.67 -9.47, 353.37 -5.92 M353.37 -5.92 C353.37 -5.92, 353.37 -5.92, 353.37 -5.92 M353.37 -5.92 C353.37 -5.92, 353.37 -5.92, 353.37 -5.92" stroke="#2f9e44" stroke-width="4" fill="none"></path></g></g><mask></mask><g stroke-linecap="round"><g transform="translate(1278.8395424215792 1350.455806968309) rotate(0 229.2577617493272 107.32394483281678)"><path d="M-0.47 1.04 C75.88 37.06, 382.77 179.52, 459.24 215.12 M1.48 0.54 C77.63 36.29, 382.68 177.34, 458.67 213.24" stroke="#2f9e44" stroke-width="4" fill="none"></path></g><g transform="translate(1278.8395424215792 1350.455806968309) rotate(0 229.2577617493272 107.32394483281678)"><path d="M433.76 211.05 C445.31 213.21, 454.19 212.52, 458.67 213.24 M433.76 211.05 C441.1 211.34, 448 212.56, 458.67 213.24" stroke="#2f9e44" stroke-width="4" fill="none"></path></g><g transform="translate(1278.8395424215792 1350.455806968309) rotate(0 229.2577617493272 107.32394483281678)"><path d="M441 195.55 C449.56 203.81, 455.58 209.23, 458.67 213.24 M441 195.55 C446.11 200.5, 450.85 206.35, 458.67 213.24" stroke="#2f9e44" stroke-width="4" fill="none"></path></g></g><mask></mask><g stroke-linecap="round" transform="translate(1637.482873774548 1509.8829990375689) rotate(0 196.279784405314 139.73825045156218)"><path d="M14.63 133.29 C14.63 133.29, 14.63 133.29, 14.63 133.29 M14.63 133.29 C14.63 133.29, 14.63 133.29, 14.63 133.29 M19.49 152.09 C30.32 140.5, 42.45 125.54, 75.91 87.19 M19.49 152.09 C33.06 136.04, 46.85 119.87, 75.91 87.19 M31.56 162.59 C59.6 129.14, 89.89 97.17, 131.94 47.12 M31.56 162.59 C66.16 124.02, 99.88 84.8, 131.94 47.12 M44.95 171.58 C73.46 140.24, 100.54 107.99, 182.72 13.09 M44.95 171.58 C89.5 121.4, 133.35 70.62, 182.72 13.09 M57.68 181.32 C103.19 128.91, 146.25 77.96, 205.95 10.75 M57.68 181.32 C106.08 125.62, 156.29 67.48, 205.95 10.75 M71.07 190.31 C124.18 129.35, 179.79 66.33, 220.65 18.23 M71.07 190.31 C106.04 151.55, 142.07 110.68, 220.65 18.23 M84.46 199.29 C116.88 164.71, 149 125.19, 234.04 27.22 M84.46 199.29 C139.22 135.16, 194.95 71.07, 234.04 27.22 M97.19 209.04 C143.12 155.55, 191.52 98.28, 247.43 36.21 M97.19 209.04 C129.25 173.52, 161.85 137.54, 247.43 36.21 M110.58 218.02 C170.01 151.61, 226.84 85.03, 260.81 45.19 M110.58 218.02 C153.74 169.13, 197.19 118.02, 260.81 45.19 M123.96 227.01 C159.8 184.17, 196.18 145.01, 273.54 54.94 M123.96 227.01 C155.98 190.04, 188.14 151.78, 273.54 54.94 M136.69 236.75 C189.15 176.35, 239.96 119.07, 286.93 63.92 M136.69 236.75 C176.94 189.41, 217.94 143.06, 286.93 63.92 M150.08 245.74 C191.91 200.05, 231.22 152.17, 299.66 73.67 M150.08 245.74 C206.31 182.47, 259.91 119.78, 299.66 73.67 M163.47 254.73 C209.61 199.54, 256.74 146.28, 312.39 83.41 M163.47 254.73 C203.28 210.12, 240.76 167.22, 312.39 83.41 M176.86 263.72 C224.17 210.91, 267.07 158.67, 325.78 92.4 M176.86 263.72 C223.7 210.47, 270.47 158.75, 325.78 92.4 M192.21 270.44 C244.32 210.15, 296.94 145.71, 338.51 102.14 M192.21 270.44 C236.16 218.43, 283.07 166.71, 338.51 102.14 M220.69 262.07 C247.92 233.63, 275.04 202.69, 351.9 111.13 M220.69 262.07 C251.25 226.13, 282.12 190.48, 351.9 111.13 M273.44 225.77 C297.45 196.88, 319.49 172.96, 364.63 120.87 M273.44 225.77 C297.81 200.07, 319.78 173.03, 364.63 120.87 M329.47 185.7 C345.89 164.98, 363.9 147.65, 376.71 131.36 M329.47 185.7 C342.53 169.26, 356.98 152.1, 376.71 131.36" stroke="#f8f9fa" stroke-width="2" fill="none"></path><path d="M246.25 35 C283.56 60.94, 322.71 92.47, 343.31 105 M246.25 35 C283.79 60.8, 318.84 86.53, 343.31 105 M343.31 105 C392.61 138.3, 391.11 141.22, 343.31 175 M343.31 105 C392.24 138.79, 391.12 137.7, 343.31 175 M343.31 175 C319.17 190.09, 294.99 206.75, 246.25 244.48 M343.31 175 C322.54 188.36, 302.17 203.64, 246.25 244.48 M246.25 244.48 C197.17 280.79, 195.45 278.67, 147.75 244.48 M246.25 244.48 C196.27 281.38, 196.79 277.31, 147.75 244.48 M147.75 244.48 C111.73 217.62, 71.35 190.98, 49.25 175 M147.75 244.48 C126.08 229.01, 105.09 215.39, 49.25 175 M49.25 175 C0.16 141, 0.51 140.97, 49.25 105 M49.25 175 C-0.34 142.21, 0.7 139.91, 49.25 105 M49.25 105 C76.1 84.93, 104.87 64.49, 147.75 35 M49.25 105 C77.35 85.6, 103.03 66.72, 147.75 35 M147.75 35 C196.78 -0.75, 197.9 -0.35, 246.25 35 M147.75 35 C197.08 1.5, 195.12 -1.5, 246.25 35" stroke="#2f9e44" stroke-width="4" fill="none"></path></g><g transform="translate(1774.1687864850173 1604.7521242633502) rotate(0 59.453979492187386 45)"><text x="59.4539794921875" y="0" font-family="Virgil, Segoe UI Emoji" font-size="36px" fill="#2f9e44" text-anchor="middle" style="white-space: pre;" direction="ltr" dominant-baseline="text-before-edge">FAIL</text><text x="59.4539794921875" y="45" font-family="Virgil, Segoe UI Emoji" font-size="36px" fill="#2f9e44" text-anchor="middle" style="white-space: pre;" direction="ltr" dominant-baseline="text-before-edge">LOGIN</text></g><g stroke-linecap="round" transform="translate(1630.2648056102394 1199.5060679722937) rotate(0 202.2948412089046 139.73825045156218)"><path d="M14.88 133.51 C14.88 133.51, 14.88 133.51, 14.88 133.51 M14.88 133.51 C14.88 133.51, 14.88 133.51, 14.88 133.51 M19.74 152.31 C37.02 131.57, 56.9 111.8, 74.19 89.67 M19.74 152.31 C35.51 134.23, 50.35 115.33, 74.19 89.67 M32.47 162.05 C70.36 122.8, 103.17 81.74, 127.6 52.62 M32.47 162.05 C61.79 127.45, 89.48 94.15, 127.6 52.62 M45.86 171.04 C97.2 113.06, 144.7 56.75, 178.38 18.59 M45.86 171.04 C88.75 122.28, 130.21 74.6, 178.38 18.59 M58.59 180.78 C107.94 123.19, 159.32 66.01, 206.86 10.22 M58.59 180.78 C100.83 135.38, 139.98 88.25, 206.86 10.22 M71.98 189.77 C129.33 126.59, 185.75 60.69, 223.53 15.43 M71.98 189.77 C126.65 126.51, 182.08 63.78, 223.53 15.43 M85.37 198.76 C131.08 146.41, 177.7 93.19, 236.92 24.42 M85.37 198.76 C119.26 160.25, 152.07 120.56, 236.92 24.42 M98.75 207.75 C136.14 165.39, 176.55 120.43, 250.3 33.41 M98.75 207.75 C143.18 157.93, 186.6 107.19, 250.3 33.41 M112.14 216.73 C156.39 166.02, 203.5 113.2, 263.69 42.4 M112.14 216.73 C148.29 175.09, 184.22 136.13, 263.69 42.4 M125.53 225.72 C165.32 181.58, 205.02 135.22, 277.08 51.38 M125.53 225.72 C169.52 174, 212.9 121.9, 277.08 51.38 M138.92 234.71 C186.19 180.94, 230.35 127.99, 290.47 60.37 M138.92 234.71 C188.05 178.11, 236.43 123.81, 290.47 60.37 M151.65 244.45 C211.6 175.14, 268.86 109.55, 303.2 70.11 M151.65 244.45 C197.28 190.82, 243.97 136.95, 303.2 70.11 M165.03 253.44 C205.44 208.88, 243.73 163.83, 316.58 79.1 M165.03 253.44 C202.31 210.82, 239.4 169.97, 316.58 79.1 M179.08 261.67 C213.28 224.6, 245.3 183.61, 329.97 88.09 M179.08 261.67 C212.29 221.39, 246.67 183.18, 329.97 88.09 M193.78 269.15 C229.33 226.16, 265.48 185.86, 342.7 97.83 M193.78 269.15 C240.27 215.72, 285.79 162.97, 342.7 97.83 M215.69 268.33 C251.91 226.52, 290.66 182.16, 356.09 106.82 M215.69 268.33 C253.36 224.41, 290.53 181.61, 356.09 106.82 M261.88 239.58 C294.92 200.76, 328.69 164.43, 369.48 115.81 M261.88 239.58 C302.81 194.13, 342.75 148.05, 369.48 115.81 M315.29 202.53 C327.03 187.69, 341.77 170.56, 381.55 126.3 M315.29 202.53 C328.84 186.37, 342.41 171.56, 381.55 126.3 M370.67 163.21 C377.84 155.59, 383.16 152.32, 391.66 139.06 M370.67 163.21 C374.6 156.97, 378.97 152.09, 391.66 139.06" stroke="#f8f9fa" stroke-width="2" fill="none"></path><path d="M253.75 35 C287.84 58.97, 327.2 86.82, 353.84 105 M253.75 35 C288.99 58.05, 325.07 82.76, 353.84 105 M353.84 105 C406.42 141.04, 404.46 138.62, 353.84 175 M353.84 105 C406.82 139.77, 402.9 138.35, 353.84 175 M353.84 175 C328.49 193.61, 304.7 208.78, 253.75 244.48 M353.84 175 C316.32 200.07, 278.13 227.55, 253.75 244.48 M253.75 244.48 C203.95 281.47, 202.61 280.22, 152.25 244.48 M253.75 244.48 C203.06 281.04, 205.24 280.86, 152.25 244.48 M152.25 244.48 C117.62 220.55, 87.97 201.19, 50.75 175 M152.25 244.48 C126.96 227.94, 104.24 210.81, 50.75 175 M50.75 175 C-0.09 141.01, 1.42 140.89, 50.75 105 M50.75 175 C1.35 141.15, 0.38 142.17, 50.75 105 M50.75 105 C80.13 80.91, 111.88 60.85, 152.25 35 M50.75 105 C79.3 84.04, 109.34 64.04, 152.25 35 M152.25 35 C202.11 -0.41, 204.59 0.24, 253.75 35 M152.25 35 C203.31 1.04, 200.76 1.16, 253.75 35" stroke="#2f9e44" stroke-width="4" fill="none"></path></g><g transform="translate(1771.374247088715 1294.375193198075) rotate(0 61.037979125976676 45)"><text x="61.03797912597656" y="0" font-family="Virgil, Segoe UI Emoji" font-size="36px" fill="#2f9e44" text-anchor="middle" style="white-space: pre;" direction="ltr" dominant-baseline="text-before-edge">IS</text><text x="61.03797912597656" y="45" font-family="Virgil, Segoe UI Emoji" font-size="36px" fill="#2f9e44" text-anchor="middle" style="white-space: pre;" direction="ltr" dominant-baseline="text-before-edge">ADMIN</text></g><g stroke-linecap="round" transform="translate(1630.2648056102394 918.0014095642537) rotate(0 201.0918298481862 145)"><path d="M15.04 138.95 C15.04 138.95, 15.04 138.95, 15.04 138.95 M15.04 138.95 C15.04 138.95, 15.04 138.95, 15.04 138.95 M19.25 158.51 C25.53 149.33, 33.36 143.71, 38.27 136.62 M19.25 158.51 C24 151.86, 29.99 144.42, 38.27 136.62 M31.98 168.25 C54.92 144.7, 74.95 121.66, 96.27 94.29 M31.98 168.25 C49.48 149.47, 65.2 129.46, 96.27 94.29 M44.05 178.75 C94.26 120.61, 147.42 62.79, 187.73 13.47 M44.05 178.75 C98.55 116.83, 152.36 55.17, 187.73 13.47 M56.78 188.49 C96.12 143.59, 136.07 97.8, 208.33 14.15 M56.78 188.49 C89.03 150.35, 123.31 111.95, 208.33 14.15 M70.17 197.48 C114.71 148.15, 160.73 96.67, 223.69 20.87 M70.17 197.48 C114.74 145.65, 160.38 94.95, 223.69 20.87 M83.56 206.46 C133.66 152.46, 181.51 96.09, 238.39 28.35 M83.56 206.46 C144.61 136.26, 206.84 67.02, 238.39 28.35 M96.29 216.21 C135.65 168.58, 174.5 122.54, 252.43 36.59 M96.29 216.21 C130.62 176.41, 165.32 136.55, 252.43 36.59 M109.68 225.19 C156.96 171.19, 200.92 117.5, 265.16 46.33 M109.68 225.19 C166.44 158.93, 224.34 92.52, 265.16 46.33 M122.41 234.94 C167.45 183.56, 211.33 132.84, 278.55 55.31 M122.41 234.94 C165.75 182.88, 210.86 131.13, 278.55 55.31 M135.8 243.92 C193.7 178.25, 247.47 115.38, 291.28 65.06 M135.8 243.92 C181.69 192.4, 225.66 141.18, 291.28 65.06 M149.19 252.91 C203.33 187.78, 258.06 126.35, 304.02 74.8 M149.19 252.91 C200.87 192.98, 251.48 134.06, 304.02 74.8 M161.92 262.65 C195.62 220.33, 232.56 180.83, 317.4 83.79 M161.92 262.65 C198.25 223.25, 232.79 183.13, 317.4 83.79 M175.96 270.89 C210.06 228.51, 247.76 187.34, 330.13 93.53 M175.96 270.89 C234.68 203.16, 292.35 136.41, 330.13 93.53 M190 279.12 C245.14 213.75, 301.25 147.36, 342.87 103.27 M190 279.12 C221.39 240.94, 253.89 202.35, 342.87 103.27 M208.64 282.07 C265.36 215.92, 324.47 149.3, 355.6 113.01 M208.64 282.07 C261.41 221.36, 314.03 160.95, 355.6 113.01 M240.4 269.92 C269.29 238.97, 295.6 208.44, 368.98 122 M240.4 269.92 C268.58 236.91, 296.98 205.98, 368.98 122 M297.08 229.1 C321.21 199.59, 348.11 169.35, 381.06 132.5 M297.08 229.1 C328.63 195.06, 358.22 159.4, 381.06 132.5 M368.86 170.92 C374.69 163.3, 384.85 154.57, 389.85 146.77 M368.86 170.92 C376.43 162.85, 384.5 154.03, 389.85 146.77" stroke="#f8f9fa" stroke-width="2" fill="none"></path><path d="M252.5 36.5 C278.56 55.72, 307.67 74.71, 351.68 109.5 M252.5 36.5 C291.15 64.21, 327.09 92.51, 351.68 109.5 M351.68 109.5 C402.35 145.54, 401.95 145.6, 351.68 182.5 M351.68 109.5 C404.02 145.24, 400.99 147.34, 351.68 182.5 M351.68 182.5 C314.65 210.16, 278.49 233.92, 252.5 253.5 M351.68 182.5 C314.36 208.07, 278.11 233.58, 252.5 253.5 M252.5 253.5 C200.73 288.77, 200.13 290.58, 151.5 253.5 M252.5 253.5 C200.96 288.25, 202.76 292.01, 151.5 253.5 M151.5 253.5 C127.28 235.39, 104.59 220.92, 50.5 182.5 M151.5 253.5 C119.88 230.24, 87.4 208.06, 50.5 182.5 M50.5 182.5 C-1 147.77, 1.62 147.34, 50.5 109.5 M50.5 182.5 C1.59 146.03, -0.81 148.02, 50.5 109.5 M50.5 109.5 C72.26 93.24, 89.91 78.31, 151.5 36.5 M50.5 109.5 C89.05 81.51, 128.73 54.59, 151.5 36.5 M151.5 36.5 C203.12 0.06, 200.78 0.6, 252.5 36.5 M151.5 36.5 C202.18 -0.98, 202.56 -2.23, 252.5 36.5" stroke="#2f9e44" stroke-width="4" fill="none"></path></g><g transform="translate(1736.0907574606017 1018.0014095642537) rotate(0 95.21996307373047 45)"><text x="95.21996307373047" y="0" font-family="Virgil, Segoe UI Emoji" font-size="36px" fill="#2f9e44" text-anchor="middle" style="white-space: pre;" direction="ltr" dominant-baseline="text-before-edge">IS</text><text x="95.21996307373047" y="45" font-family="Virgil, Segoe UI Emoji" font-size="36px" fill="#2f9e44" text-anchor="middle" style="white-space: pre;" direction="ltr" dominant-baseline="text-before-edge">EMPLOYEE</text></g><g stroke-linecap="round"><g transform="translate(1639.0482915790594 1653.0467894985622) rotate(0 -559.4002827339265 -1.2030113607181647)"><path d="M-0.43 0.13 C-186.92 -0.02, -933.26 -1.41, -1119.59 -1.86 M1.54 -0.85 C-184.51 -1.26, -930.55 -3.61, -1117.29 -3.69" stroke="#2f9e44" stroke-width="4" fill="none"></path></g></g><mask></mask><g stroke-linecap="round"><g transform="translate(527.4657942755153 1650.640766777126) rotate(0 0 -74.58670436452371)"><path d="M0.29 0.8 C0.41 -23.92, 0.01 -124.31, -0.22 -149.16 M-1.02 0.18 C-0.99 -24.27, -1.66 -122.56, -1.29 -147.61" stroke="#2f9e44" stroke-width="4" fill="none"></path></g><g transform="translate(527.4657942755153 1650.640766777126) rotate(0 0 -74.58670436452371)"><path d="M7.2 -124.1 C6.86 -129.55, 3.7 -136.1, -1.29 -147.61 M7.2 -124.1 C3.65 -132.23, 1.52 -141.85, -1.29 -147.61" stroke="#2f9e44" stroke-width="4" fill="none"></path></g><g transform="translate(527.4657942755153 1650.640766777126) rotate(0 0 -74.58670436452371)"><path d="M-9.9 -124.14 C-6.53 -129.63, -5.98 -136.17, -1.29 -147.61 M-9.9 -124.14 C-7.04 -132.36, -2.75 -141.97, -1.29 -147.61" stroke="#2f9e44" stroke-width="4" fill="none"></path></g></g><mask></mask><g stroke-linecap="round"><g transform="translate(2007.1244545499899 1343.7235405573401) rotate(0 333.04139227253086 154.14489595475743)"><path d="M-0.9 0.33 C110.16 51.96, 554.17 257.76, 665.52 309.14 M0.83 -0.54 C111.75 50.81, 553.25 256.3, 664.28 307.47" stroke="#2f9e44" stroke-width="4" fill="none"></path></g><g transform="translate(2007.1244545499899 1343.7235405573401) rotate(0 333.04139227253086 154.14489595475743)"><path d="M639.37 305.35 C645.65 305.1, 652.26 308.41, 664.28 307.47 M639.37 305.35 C647.27 305.93, 656.36 306.11, 664.28 307.47" stroke="#2f9e44" stroke-width="4" fill="none"></path></g><g transform="translate(2007.1244545499899 1343.7235405573401) rotate(0 333.04139227253086 154.14489595475743)"><path d="M646.56 289.83 C651.1 293.1, 656.06 299.98, 664.28 307.47 M646.56 289.83 C652.14 295.58, 658.85 300.89, 664.28 307.47" stroke="#2f9e44" stroke-width="4" fill="none"></path></g></g><mask></mask><g stroke-linecap="round" transform="translate(2695.385550185862 1464.7648035846187) rotate(0 210.69395536270417 166.33733318108216)"><path d="M7.86 8.16 C7.86 8.16, 7.86 8.16, 7.86 8.16 M7.86 8.16 C7.86 8.16, 7.86 8.16, 7.86 8.16 M0.91 40.54 C9.53 30.71, 14.99 23.75, 36.34 -0.21 M0.91 40.54 C13.43 27.26, 26.12 11.72, 36.34 -0.21 M1.18 64.62 C12.93 50.38, 26.66 36.13, 57.6 -0.28 M1.18 64.62 C16.53 46.72, 31.54 29.9, 57.6 -0.28 M0.79 89.46 C31.91 53.28, 63.02 18.54, 78.2 0.41 M0.79 89.46 C18.03 68.25, 35.13 48.48, 78.2 0.41 M1.05 113.54 C29.56 78.57, 63.85 40.87, 99.46 0.34 M1.05 113.54 C39.99 68.56, 78.89 22.99, 99.46 0.34 M0.66 138.38 C43.69 91.72, 81.34 41.18, 120.72 0.27 M0.66 138.38 C38.23 95.66, 77.4 50.29, 120.72 0.27 M0.93 162.46 C50.42 104.46, 103.89 43.26, 141.98 0.2 M0.93 162.46 C53.67 103.61, 105.34 43.04, 141.98 0.2 M0.54 187.3 C63 114.1, 128.94 41.8, 163.24 0.13 M0.54 187.3 C54.2 127.23, 106.05 65.89, 163.24 0.13 M0.81 211.38 C73.44 132.1, 144.53 50.69, 184.5 0.06 M0.81 211.38 C41.53 164.7, 81.36 116.78, 184.5 0.06 M1.07 235.46 C82.85 145.27, 160.23 53.09, 205.76 -0.01 M1.07 235.46 C69.99 159.25, 136.65 82.68, 205.76 -0.01 M0.68 260.3 C81.14 167.76, 159.53 75.79, 227.02 -0.08 M0.68 260.3 C86.42 162.52, 170.2 66.09, 227.02 -0.08 M0.95 284.38 C80.79 193.93, 156.97 103.71, 248.28 -0.15 M0.95 284.38 C89.19 181.65, 176.69 79.84, 248.28 -0.15 M1.22 308.46 C104.34 191.47, 206.44 73.18, 269.54 -0.22 M1.22 308.46 C100.91 193.4, 200.54 78.03, 269.54 -0.22 M8.04 324.99 C98.34 222.86, 187.66 119.91, 290.8 -0.28 M8.04 324.99 C65.76 257.36, 123.01 191.89, 290.8 -0.28 M23.4 331.72 C116.31 220.75, 212.73 113.15, 311.41 0.4 M23.4 331.72 C123.91 218.15, 223.02 103.22, 311.41 0.4 M43.35 333.16 C121.48 243.34, 200.3 153.42, 332.67 0.33 M43.35 333.16 C105.22 261.72, 167.03 190.83, 332.67 0.33 M64.61 333.09 C123.21 265.81, 181.74 198.31, 353.93 0.26 M64.61 333.09 C168.98 212.52, 273.63 91.65, 353.93 0.26 M85.87 333.02 C144.7 264.84, 203.44 197.38, 375.19 0.19 M85.87 333.02 C168.63 237.78, 251.97 141.67, 375.19 0.19 M107.13 332.95 C206.39 219.04, 304.16 105.24, 395.79 0.88 M107.13 332.95 C179.75 250.05, 253.12 166.52, 395.79 0.88 M128.39 332.88 C206.99 240.18, 286.74 148.05, 411.81 6.85 M128.39 332.88 C210.89 240.75, 291.77 147.03, 411.81 6.85 M148.99 333.57 C215 256.01, 283.05 179.9, 420.6 21.12 M148.99 333.57 C202.68 269.84, 258.14 205.2, 420.6 21.12 M170.25 333.5 C225.06 268.39, 279.54 204.14, 421.52 44.45 M170.25 333.5 C226.34 269.17, 282.23 205.18, 421.52 44.45 M191.51 333.43 C268.12 242.29, 347.53 151.16, 421.79 68.53 M191.51 333.43 C274.08 238.93, 355.21 144.14, 421.79 68.53 M212.77 333.36 C273.58 267.42, 330.32 200.76, 421.4 93.36 M212.77 333.36 C268.29 271.61, 321.95 209.05, 421.4 93.36 M234.03 333.29 C275.29 286.7, 313.06 241.83, 421.67 117.45 M234.03 333.29 C273.02 288.65, 313.5 242.85, 421.67 117.45 M255.29 333.22 C294.48 287.76, 335.77 240.34, 421.28 142.28 M255.29 333.22 C310.52 270.13, 366.39 206.8, 421.28 142.28 M276.55 333.15 C331.48 271.28, 386.77 205.71, 421.54 166.36 M276.55 333.15 C308.03 296.38, 340.63 260.19, 421.54 166.36 M297.81 333.09 C333.04 291.98, 365.37 252.59, 421.81 190.45 M297.81 333.09 C337.94 288.11, 378.47 240.76, 421.81 190.45 M319.07 333.02 C349.91 298.45, 380.99 263.15, 421.42 215.28 M319.07 333.02 C360.25 285.49, 401.83 240.04, 421.42 215.28 M340.33 332.95 C360.59 308.59, 379.8 285.67, 421.68 239.36 M340.33 332.95 C362.44 308.31, 383.96 283.35, 421.68 239.36 M361.59 332.88 C386.93 306.94, 411.19 277.1, 421.29 264.2 M361.59 332.88 C380.6 311.34, 398.88 290.12, 421.29 264.2 M382.2 333.56 C391.79 324.5, 396.99 313.01, 421.56 288.28 M382.2 333.56 C395.31 317.02, 410.97 300.72, 421.56 288.28 M406.74 329.72 C410.64 324.77, 412.34 323.9, 419.86 314.63 M406.74 329.72 C410.5 325, 413.84 321.76, 419.86 314.63" stroke="#f8f9fa" stroke-width="2" fill="none"></path><path d="M32 0 C113.3 2.27, 193.17 1.53, 389.39 0 M32 0 C159.06 -0.35, 285.06 -0.58, 389.39 0 M389.39 0 C411.18 -0.97, 420.63 12.35, 421.39 32 M389.39 0 C409.27 0.02, 420.35 10.13, 421.39 32 M421.39 32 C420.93 92.96, 419.75 158, 421.39 300.67 M421.39 32 C419.41 136.79, 419.04 241.5, 421.39 300.67 M421.39 300.67 C423.36 322.54, 410.56 331.07, 389.39 332.67 M421.39 300.67 C423 323.94, 409.79 333.65, 389.39 332.67 M389.39 332.67 C296.88 330.69, 203.92 330.17, 32 332.67 M389.39 332.67 C305.55 331.42, 222.05 331.4, 32 332.67 M32 332.67 C9.82 334.1, -1.04 321.06, 0 300.67 M32 332.67 C11.32 332.46, 0.76 321.35, 0 300.67 M0 300.67 C-0.01 211.59, -0.16 123.62, 0 32 M0 300.67 C-1.07 228.69, -1.28 158.06, 0 32 M0 32 C-1.55 11.21, 10.43 0.13, 32 0 M0 32 C1.57 9.91, 10.48 -0.77, 32 0" stroke="#2f9e44" stroke-width="4" fill="none"></path></g><g transform="translate(2790.843543634504 1586.1021367657004) rotate(0 115.2359619140625 45)"><text x="115.2359619140625" y="0" font-family="Virgil, Segoe UI Emoji" font-size="36px" fill="#2f9e44" text-anchor="middle" style="white-space: pre;" direction="ltr" dominant-baseline="text-before-edge">SHOW ALL </text><text x="115.2359619140625" y="45" font-family="Virgil, Segoe UI Emoji" font-size="36px" fill="#2f9e44" text-anchor="middle" style="white-space: pre;" direction="ltr" dominant-baseline="text-before-edge">INCIDENCES</text></g><g stroke-linecap="round"><g transform="translate(2026.7028841281995 1047.4673567746786) rotate(0 329.5063362063338 -133.19039303192494)"><path d="M-0.61 0.97 C109.12 -43.67, 549.63 -222.3, 659.4 -267.01 M1.28 0.43 C110.79 -44.13, 548.81 -221.32, 658.66 -265.81" stroke="#2f9e44" stroke-width="4" fill="none"></path></g><g transform="translate(2026.7028841281995 1047.4673567746786) rotate(0 329.5063362063338 -133.19039303192494)"><path d="M640.09 -249.07 C648.78 -254.81, 653.31 -263.62, 658.66 -265.81 M640.09 -249.07 C644.74 -252.57, 649.1 -257.15, 658.66 -265.81" stroke="#2f9e44" stroke-width="4" fill="none"></path></g><g transform="translate(2026.7028841281995 1047.4673567746786) rotate(0 329.5063362063338 -133.19039303192494)"><path d="M633.67 -264.92 C644.96 -264.49, 651.98 -267.15, 658.66 -265.81 M633.67 -264.92 C639.9 -264.91, 645.69 -265.95, 658.66 -265.81" stroke="#2f9e44" stroke-width="4" fill="none"></path></g></g><mask></mask><g stroke-linecap="round" transform="translate(2695.2205470083572 607.0694651142885) rotate(0 210.69395536270417 166.33733318108216)"><path d="M7.86 8.16 C7.86 8.16, 7.86 8.16, 7.86 8.16 M7.86 8.16 C7.86 8.16, 7.86 8.16, 7.86 8.16 M0.91 40.54 C13.14 27.94, 23 16.81, 36.34 -0.21 M0.91 40.54 C12.11 29.18, 21.83 16.6, 36.34 -0.21 M1.18 64.62 C18.27 47.01, 34.98 27.06, 57.6 -0.28 M1.18 64.62 C14.65 46.71, 29.16 29.84, 57.6 -0.28 M0.79 89.46 C30.74 56.98, 59.67 22.95, 78.2 0.41 M0.79 89.46 C21.32 68.02, 41.22 44.15, 78.2 0.41 M1.05 113.54 C23.05 89.36, 42.64 65.65, 99.46 0.34 M1.05 113.54 C25.08 85.57, 47.97 58.77, 99.46 0.34 M0.66 138.38 C27.39 105.81, 55.61 75.48, 120.72 0.27 M0.66 138.38 C28.8 104.57, 56.97 73.33, 120.72 0.27 M0.93 162.46 C38.7 115.03, 78.75 71.91, 141.98 0.2 M0.93 162.46 C47.63 110.16, 92.93 57.11, 141.98 0.2 M0.54 187.3 C54.89 125.79, 107.53 63.25, 163.24 0.13 M0.54 187.3 C39.77 142.46, 78.67 98.19, 163.24 0.13 M0.81 211.38 C46.73 157.64, 97.74 100.01, 184.5 0.06 M0.81 211.38 C64.63 138.45, 128.17 64.92, 184.5 0.06 M1.07 235.46 C56.72 172.45, 112.67 104.86, 205.76 -0.01 M1.07 235.46 C49.1 180.76, 95.64 126.43, 205.76 -0.01 M0.68 260.3 C67.09 182.76, 135.48 104.88, 227.02 -0.08 M0.68 260.3 C64.47 185.04, 128.06 110.87, 227.02 -0.08 M0.95 284.38 C53.93 222.26, 107.67 160.78, 248.28 -0.15 M0.95 284.38 C75.88 199.98, 149.18 115.41, 248.28 -0.15 M1.22 308.46 C69.65 227.94, 141.36 146.05, 269.54 -0.22 M1.22 308.46 C68.68 230.87, 135.67 153.66, 269.54 -0.22 M8.04 324.99 C80.7 240.27, 151.74 156.96, 290.8 -0.28 M8.04 324.99 C90.32 232.46, 172.2 138.57, 290.8 -0.28 M23.4 331.72 C135.39 201.89, 247.22 71.67, 311.41 0.4 M23.4 331.72 C112.68 228.71, 202.39 125.86, 311.41 0.4 M43.35 333.16 C119.58 246.23, 194.98 159.03, 332.67 0.33 M43.35 333.16 C151.14 207.06, 261.21 80.72, 332.67 0.33 M64.61 333.09 C143.14 243.22, 221.99 151.85, 353.93 0.26 M64.61 333.09 C142.8 242.79, 221.53 152.6, 353.93 0.26 M85.87 333.02 C158.34 247.65, 231.92 162.56, 375.19 0.19 M85.87 333.02 C171.8 233.13, 259.32 133.13, 375.19 0.19 M107.13 332.95 C181.36 246.43, 256.73 159.22, 395.79 0.88 M107.13 332.95 C188.2 239.13, 270.29 146.5, 395.79 0.88 M128.39 332.88 C187.01 264.65, 245.36 198.45, 411.81 6.85 M128.39 332.88 C221.49 227.94, 313.54 121.19, 411.81 6.85 M148.99 333.57 C218.76 253.25, 289.05 171.74, 420.6 21.12 M148.99 333.57 C211.1 261.56, 274.68 188.47, 420.6 21.12 M170.25 333.5 C233.18 260.16, 298.36 185.77, 421.52 44.45 M170.25 333.5 C237.97 254.73, 305.93 176.26, 421.52 44.45 M191.51 333.43 C267.03 245.76, 342.25 158.65, 421.79 68.53 M191.51 333.43 C277.19 235.95, 362.13 138.58, 421.79 68.53 M212.77 333.36 C275.27 262.93, 336.21 193.39, 421.4 93.36 M212.77 333.36 C273.26 262.29, 334.31 192.03, 421.4 93.36 M234.03 333.29 C285.93 272.72, 341.89 212.51, 421.67 117.45 M234.03 333.29 C284.22 275.9, 332.57 220.08, 421.67 117.45 M255.29 333.22 C311.99 266.19, 373.4 198.09, 421.28 142.28 M255.29 333.22 C303.47 277.24, 353.91 220.47, 421.28 142.28 M276.55 333.15 C320.75 281.71, 364.07 232.93, 421.54 166.36 M276.55 333.15 C309.59 294.47, 345.29 253.43, 421.54 166.36 M297.81 333.09 C330.66 298.26, 361.07 258.84, 421.81 190.45 M297.81 333.09 C338.52 287.43, 378.43 240.42, 421.81 190.45 M319.07 333.02 C351.39 297.81, 382.83 262.74, 421.42 215.28 M319.07 333.02 C359.08 289.07, 396.69 243.76, 421.42 215.28 M340.33 332.95 C369.26 302.57, 395.8 268.56, 421.68 239.36 M340.33 332.95 C371.54 297.42, 401.92 263, 421.68 239.36 M361.59 332.88 C386.59 307.46, 406.22 277.77, 421.29 264.2 M361.59 332.88 C378.45 312.81, 394.49 294.16, 421.29 264.2 M382.2 333.56 C397.24 317.17, 406.77 304.35, 421.56 288.28 M382.2 333.56 C396.31 316.44, 412.42 299.6, 421.56 288.28 M406.74 329.72 C413.81 322.1, 415.6 318.87, 419.86 314.63 M406.74 329.72 C411.2 324.36, 414.37 321.43, 419.86 314.63" stroke="#f8f9fa" stroke-width="2" fill="none"></path><path d="M32 0 C143.57 -0.09, 255.57 -1.76, 389.39 0 M32 0 C131.72 -0.93, 230.5 -0.69, 389.39 0 M389.39 0 C409.15 -1.01, 419.68 12.48, 421.39 32 M389.39 0 C412.14 1.47, 421.04 9.67, 421.39 32 M421.39 32 C421.34 131.87, 420.7 228.95, 421.39 300.67 M421.39 32 C423.3 116.81, 422.62 203.26, 421.39 300.67 M421.39 300.67 C422.25 321.08, 409.07 331.78, 389.39 332.67 M421.39 300.67 C423.65 321.96, 409.45 334.13, 389.39 332.67 M389.39 332.67 C277.53 332.93, 166.59 331.81, 32 332.67 M389.39 332.67 C268.5 333.18, 147.69 332.67, 32 332.67 M32 332.67 C9.25 332.48, 1.01 321.64, 0 300.67 M32 332.67 C10.52 332.77, 1.51 320.22, 0 300.67 M0 300.67 C0.15 216.54, -2.55 134.21, 0 32 M0 300.67 C0.58 227.23, -0.86 154.01, 0 32 M0 32 C-0.33 10.87, 10.45 0.62, 32 0 M0 32 C0.7 8.78, 10.13 0.12, 32 0" stroke="#2f9e44" stroke-width="4" fill="none"></path></g><g transform="translate(2745.33656047653 728.4067982953711) rotate(0 160.57794189453125 45)"><text x="160.57794189453125" y="0" font-family="Virgil, Segoe UI Emoji" font-size="36px" fill="#2f9e44" text-anchor="middle" style="white-space: pre;" direction="ltr" dominant-baseline="text-before-edge">SHOW EMPLOYEE </text><text x="160.57794189453125" y="45" font-family="Virgil, Segoe UI Emoji" font-size="36px" fill="#2f9e44" text-anchor="middle" style="white-space: pre;" direction="ltr" dominant-baseline="text-before-edge">INCIDENCES</text></g><g stroke-linecap="round"><g transform="translate(3125.4029804934034 674.7294919094529) rotate(0 169.15104510961805 -62.947035498316836)"><path d="M0.9 0.83 C57.18 -20.41, 281.78 -105.98, 337.92 -127.01 M-0.08 0.22 C55.97 -20.95, 280.64 -104.79, 336.77 -126.06" stroke="#2f9e44" stroke-width="4" fill="none"></path></g><g transform="translate(3125.4029804934034 674.7294919094529) rotate(0 169.15104510961805 -62.947035498316836)"><path d="M317.78 -109.8 C325.24 -115.83, 328.11 -121.39, 336.77 -126.06 M317.78 -109.8 C324.94 -115.24, 330.81 -121.52, 336.77 -126.06" stroke="#2f9e44" stroke-width="4" fill="none"></path></g><g transform="translate(3125.4029804934034 674.7294919094529) rotate(0 169.15104510961805 -62.947035498316836)"><path d="M311.77 -125.8 C321.22 -126.72, 326.03 -127.11, 336.77 -126.06 M311.77 -125.8 C320.93 -125.67, 328.87 -126.42, 336.77 -126.06" stroke="#2f9e44" stroke-width="4" fill="none"></path></g></g><mask></mask><g stroke-linecap="round"><g transform="translate(3124.1740492694144 770.760636418765) rotate(0 177.02644666196784 57.879478137263504)"><path d="M-0.39 -1.12 C58.38 18.13, 294.5 96.99, 353.48 116.3 M1.61 0.91 C60.09 19.72, 293.77 95.36, 352.23 114.47" stroke="#2f9e44" stroke-width="4" fill="none"></path></g><g transform="translate(3124.1740492694144 770.760636418765) rotate(0 177.02644666196784 57.879478137263504)"><path d="M327.25 115.34 C334.75 114.14, 346.9 113.82, 352.23 114.47 M327.25 115.34 C332.51 114.5, 338.22 115.24, 352.23 114.47" stroke="#2f9e44" stroke-width="4" fill="none"></path></g><g transform="translate(3124.1740492694144 770.760636418765) rotate(0 177.02644666196784 57.879478137263504)"><path d="M332.54 99.08 C338.17 103.96, 348.33 109.74, 352.23 114.47 M332.54 99.08 C336.73 101.78, 341.29 106.05, 352.23 114.47" stroke="#2f9e44" stroke-width="4" fill="none"></path></g></g><mask></mask><g stroke-linecap="round" transform="translate(3387.7994412372454 280.9696557644793) rotate(0 226.5356061418545 194.85230458355363)"><path d="M20.24 180.57 C20.24 180.57, 20.24 180.57, 20.24 180.57 M20.24 180.57 C20.24 180.57, 20.24 180.57, 20.24 180.57 M18.54 206.92 C55.26 162.4, 91.45 122.68, 111.7 99.75 M18.54 206.92 C37.96 185.56, 55.27 164.14, 111.7 99.75 M29.3 218.92 C92.83 145.83, 155.69 73.87, 192 31.75 M29.3 218.92 C85.34 153.7, 141.07 91.35, 192 31.75 M40.72 230.17 C88.39 177.13, 137.82 120.29, 229.66 12.82 M40.72 230.17 C91.59 171.24, 143.09 112.29, 229.66 12.82 M52.8 240.67 C99.21 188.3, 144.08 134.97, 245.02 19.54 M52.8 240.67 C119.8 165.63, 185.72 88.98, 245.02 19.54 M65.53 250.41 C112.47 197.25, 157.43 144.32, 259.06 27.77 M65.53 250.41 C115.35 193.85, 164.48 136.84, 259.06 27.77 M77.6 260.91 C136.81 192.04, 197.17 122.75, 271.14 38.27 M77.6 260.91 C130.02 201.03, 182.24 142.06, 271.14 38.27 M89.68 271.41 C152.09 199.14, 213.45 126.77, 283.21 48.77 M89.68 271.41 C131.94 224.76, 172.36 177.05, 283.21 48.77 M101.75 281.9 C156.64 215.54, 215.03 153.16, 295.29 59.26 M101.75 281.9 C160.88 215.43, 220.67 148.45, 295.29 59.26 M113.83 292.4 C154.16 246.14, 194.52 196.7, 307.37 69.76 M113.83 292.4 C182.11 213.23, 250.94 134.14, 307.37 69.76 M125.9 302.9 C168.81 253.02, 209.5 205.06, 319.44 80.26 M125.9 302.9 C201.17 214.33, 277.6 126.34, 319.44 80.26 M137.98 313.39 C207.44 232.32, 279.85 149.65, 331.52 90.76 M137.98 313.39 C186.91 255.83, 237.39 198.44, 331.52 90.76 M150.05 323.89 C200.79 264.96, 252.09 206.73, 343.59 101.25 M150.05 323.89 C196.71 273.47, 240.54 221.89, 343.59 101.25 M162.13 334.39 C235.39 245.51, 311.71 159.59, 355.67 111.75 M162.13 334.39 C207.99 281.15, 255.86 226.92, 355.67 111.75 M174.86 344.13 C243.15 265.25, 309.8 188.35, 367.74 122.25 M174.86 344.13 C229.24 281.32, 282.06 221.4, 367.74 122.25 M186.94 354.63 C231.55 304.81, 274.76 255.45, 379.82 132.74 M186.94 354.63 C263.7 267.45, 339.78 180.76, 379.82 132.74 M199.67 364.37 C268.86 287.43, 336.44 208.69, 391.89 143.24 M199.67 364.37 C263.53 289.9, 329 214.72, 391.89 143.24 M213.05 373.36 C281.53 294.49, 347.66 216.53, 403.97 153.74 M213.05 373.36 C277.55 297.77, 344.94 221.63, 403.97 153.74 M231.03 377.06 C283.49 317.95, 335.44 258.55, 416.04 164.23 M231.03 377.06 C302.69 295.44, 372.69 214.53, 416.04 164.23 M281.16 343.79 C312.51 307.34, 341.76 271.12, 427.46 175.49 M281.16 343.79 C327.9 292.63, 372.76 240.47, 427.46 175.49 M366.06 270.51 C386.7 248.56, 402.72 225.24, 437.57 188.25 M366.06 270.51 C391.08 244.36, 415.18 215.14, 437.57 188.25" stroke="#f8f9fa" stroke-width="2" fill="none"></path><path d="M283.75 48.75 C313.9 74.46, 341.49 102.57, 396.32 146.25 M283.75 48.75 C317.65 79.18, 351.72 108.04, 396.32 146.25 M396.32 146.25 C453.33 194.16, 452.72 194.67, 396.32 243.75 M396.32 146.25 C453.26 194.29, 451.76 196.59, 396.32 243.75 M396.32 243.75 C352.73 280.55, 307.75 319.22, 283.75 340.95 M396.32 243.75 C363.74 270.05, 332.57 297.85, 283.75 340.95 M283.75 340.95 C225.52 389.01, 225.34 388.03, 170.25 340.95 M283.75 340.95 C228.42 388.34, 228.89 389.5, 170.25 340.95 M170.25 340.95 C145.24 321.26, 120.96 297.65, 56.75 243.75 M170.25 340.95 C146.21 319.46, 120.69 298.23, 56.75 243.75 M56.75 243.75 C-0.48 194.31, -1.72 195.23, 56.75 146.25 M56.75 243.75 C0.22 197.15, 0.97 194.44, 56.75 146.25 M56.75 146.25 C87.92 119.89, 120.07 92.68, 170.25 48.75 M56.75 146.25 C81.18 126.22, 104.28 106.63, 170.25 48.75 M170.25 48.75 C225.93 0.29, 227.86 -0.84, 283.75 48.75 M170.25 48.75 C228.6 2.02, 228.17 -0.19, 283.75 48.75" stroke="#2f9e44" stroke-width="4" fill="none"></path></g><g transform="translate(3510.2752826382507 408.3958080562561) rotate(0 104.29196166992188 67.5)"><text x="104.29196166992188" y="0" font-family="Virgil, Segoe UI Emoji" font-size="36px" fill="#2f9e44" text-anchor="middle" style="white-space: pre;" direction="ltr" dominant-baseline="text-before-edge">CREATE </text><text x="104.29196166992188" y="45" font-family="Virgil, Segoe UI Emoji" font-size="36px" fill="#2f9e44" text-anchor="middle" style="white-space: pre;" direction="ltr" dominant-baseline="text-before-edge">NEW </text><text x="104.29196166992188" y="90" font-family="Virgil, Segoe UI Emoji" font-size="36px" fill="#2f9e44" text-anchor="middle" style="white-space: pre;" direction="ltr" dominant-baseline="text-before-edge">INCIDENCE</text></g><g stroke-linecap="round"><g transform="translate(3395.3040360745986 493.9150316213827) rotate(0 -144.99799672996005 53.322563002082916)"><path d="M-0.78 -0.19 C-49.33 17.77, -242.15 89.67, -290.37 107.35 M1 -1.33 C-47.81 16.32, -242.86 87.58, -291.52 105.59" stroke="#2f9e44" stroke-width="4" fill="none"></path></g><g transform="translate(3395.3040360745986 493.9150316213827) rotate(0 -144.99799672996005 53.322563002082916)"><path d="M-272.41 89.47 C-279.92 94.74, -285.57 101.16, -291.52 105.59 M-272.41 89.47 C-276.32 92.63, -280.72 97.87, -291.52 105.59" stroke="#2f9e44" stroke-width="4" fill="none"></path></g><g transform="translate(3395.3040360745986 493.9150316213827) rotate(0 -144.99799672996005 53.322563002082916)"><path d="M-266.52 105.52 C-276.17 104.76, -284.02 105.18, -291.52 105.59 M-266.52 105.52 C-271.92 104.91, -277.69 106.39, -291.52 105.59" stroke="#2f9e44" stroke-width="4" fill="none"></path></g></g><mask></mask><g stroke-linecap="round" transform="translate(3439.3951956301016 733.9064129154976) rotate(0 231.28810137560026 212.27812044061875)"><path d="M20.88 197.02 C20.88 197.02, 20.88 197.02, 20.88 197.02 M20.88 197.02 C20.88 197.02, 20.88 197.02, 20.88 197.02 M18.52 224.12 C63.17 174.72, 107.84 120.96, 137.92 86.77 M18.52 224.12 C48.18 187.46, 80.13 150.5, 137.92 86.77 M27.97 237.64 C97.79 158.3, 165.19 78.95, 219.54 17.26 M27.97 237.64 C104.02 151.04, 180.62 64.84, 219.54 17.26 M39.39 248.89 C86.04 196.14, 131.9 144.27, 242.11 15.69 M39.39 248.89 C104.99 173.68, 170.45 98.21, 242.11 15.69 M51.46 259.39 C118.97 181.65, 188.48 103.38, 255.5 24.67 M51.46 259.39 C106.4 197.69, 160.48 134.84, 255.5 24.67 M62.88 270.64 C106.43 221.97, 149.77 171.83, 268.23 34.42 M62.88 270.64 C117.6 207.12, 172.65 144.06, 268.23 34.42 M74.96 281.14 C138.7 208.48, 201.59 136.4, 280.3 44.91 M74.96 281.14 C153.78 191.04, 231.77 100.44, 280.3 44.91 M87.03 291.63 C130.07 245.24, 172.9 195.86, 292.38 55.41 M87.03 291.63 C150.06 218.98, 211.71 148.15, 292.38 55.41 M98.45 302.89 C175.61 212.45, 255.23 123.86, 303.8 66.66 M98.45 302.89 C176.73 214.81, 253.49 126.66, 303.8 66.66 M110.53 313.38 C156.56 258.77, 203.78 204.85, 315.87 77.16 M110.53 313.38 C191.62 222.99, 269.86 131.41, 315.87 77.16 M121.95 324.63 C163.47 275.83, 204 228.89, 327.29 88.41 M121.95 324.63 C164.83 272, 209.97 221.16, 327.29 88.41 M134.02 335.13 C185.51 275.75, 235.6 218.74, 339.37 98.91 M134.02 335.13 C181.17 282.25, 226.67 229.82, 339.37 98.91 M146.1 345.63 C219.07 263.79, 292.86 178.22, 350.79 110.16 M146.1 345.63 C197.82 283.12, 249.72 222.74, 350.79 110.16 M157.52 356.88 C234.93 267.55, 312.32 181.7, 362.86 120.66 M157.52 356.88 C214.73 289.49, 272.75 221.78, 362.86 120.66 M169.59 367.38 C247.63 280.85, 321.9 192.34, 374.28 131.91 M169.59 367.38 C249.46 277.04, 328.85 185.71, 374.28 131.91 M181.67 377.87 C233.07 318.48, 285.76 258.83, 386.36 142.4 M181.67 377.87 C259.93 286.53, 340.65 194.27, 386.36 142.4 M193.09 389.13 C260.47 310.29, 328.27 234.24, 397.78 153.66 M193.09 389.13 C245.68 328.26, 298.33 266.4, 397.78 153.66 M205.82 398.87 C263.7 327.04, 324.6 259.3, 409.2 164.91 M205.82 398.87 C271.66 323.92, 337.37 248.62, 409.2 164.91 M219.21 407.86 C266.98 352.68, 315.25 295.16, 421.27 175.4 M219.21 407.86 C277.4 342.17, 333.97 276.03, 421.27 175.4 M238.5 410.05 C282.32 360.76, 327.54 309.22, 432.69 186.66 M238.5 410.05 C281.51 360.98, 323.98 310.94, 432.69 186.66 M303.71 359.42 C340.73 317.04, 381.73 273.25, 442.8 199.42 M303.71 359.42 C333.44 324.76, 363.65 291.23, 442.8 199.42 M408.29 263.5 C423.52 249.19, 437.02 230.42, 447.66 218.22 M408.29 263.5 C423.72 247.1, 437.74 230.03, 447.66 218.22" stroke="#f8f9fa" stroke-width="2" fill="none"></path><path d="M290 53.25 C329.15 91.21, 371.43 129, 404.58 159.75 M290 53.25 C321.17 82.58, 352.64 111.44, 404.58 159.75 M404.58 159.75 C461.44 214.38, 464.54 212.66, 404.58 266.25 M404.58 159.75 C461.04 214.63, 461.23 214.47, 404.58 266.25 M404.58 266.25 C377.36 288.89, 347.88 313.96, 290 371.31 M404.58 266.25 C367.88 297.19, 334.24 329.61, 290 371.31 M290 371.31 C233.64 424.38, 230.45 424.64, 174 371.31 M290 371.31 C232.84 424.88, 233.74 425.98, 174 371.31 M174 371.31 C142.17 343.9, 110.05 312.11, 58 266.25 M174 371.31 C150.12 349.94, 127.81 329.69, 58 266.25 M58 266.25 C0.84 212.52, -0.5 213.89, 58 159.75 M58 266.25 C1.05 213.42, 1.14 214.48, 58 159.75 M58 159.75 C96.2 126.1, 134.74 90.06, 174 53.25 M58 159.75 C95.62 125.54, 132.5 93.22, 174 53.25 M174 53.25 C233.01 -0.17, 231.16 -1.66, 290 53.25 M174 53.25 C231.94 1.88, 234.25 -0.26, 290 53.25" stroke="#2f9e44" stroke-width="4" fill="none"></path></g><g transform="translate(3566.24728464798 901.0454731358068) rotate(0 104.29196166992188 45)"><text x="104.29196166992188" y="0" font-family="Virgil, Segoe UI Emoji" font-size="36px" fill="#2f9e44" text-anchor="middle" style="white-space: pre;" direction="ltr" dominant-baseline="text-before-edge">EDIT </text><text x="104.29196166992188" y="45" font-family="Virgil, Segoe UI Emoji" font-size="36px" fill="#2f9e44" text-anchor="middle" style="white-space: pre;" direction="ltr" dominant-baseline="text-before-edge">INCIDENCE</text></g><g stroke-linecap="round"><g transform="translate(3470.9034495536316 988.67803381872) rotate(0 -175.64023690568456 -70.62996435651803)"><path d="M0.01 0.95 C-58.83 -22.33, -293.91 -116.7, -352.33 -140.41 M-1.44 0.4 C-59.98 -23.14, -291.94 -118.68, -350.16 -142.08" stroke="#2f9e44" stroke-width="4" fill="none"></path></g><g transform="translate(3470.9034495536316 988.67803381872) rotate(0 -175.64023690568456 -70.62996435651803)"><path d="M-325.18 -141.14 C-332.52 -143.22, -341.62 -140.47, -350.16 -142.08 M-325.18 -141.14 C-331.7 -142.36, -339.46 -142.24, -350.16 -142.08" stroke="#2f9e44" stroke-width="4" fill="none"></path></g><g transform="translate(3470.9034495536316 988.67803381872) rotate(0 -175.64023690568456 -70.62996435651803)"><path d="M-331.64 -125.3 C-336.57 -133.04, -343.36 -135.96, -350.16 -142.08 M-331.64 -125.3 C-336.41 -131.17, -342.27 -135.73, -350.16 -142.08" stroke="#2f9e44" stroke-width="4" fill="none"></path></g></g><mask></mask><g stroke-linecap="round"><g transform="translate(3127.2069993056098 1518.0447357708981) rotate(0 169.5913004927977 -36.686458504184884)"><path d="M0.64 1.08 C57.16 -10.9, 283.32 -59.99, 339.8 -72.41 M-0.49 0.6 C55.88 -11.65, 282.6 -61.89, 339.18 -74.03" stroke="#2f9e44" stroke-width="4" fill="none"></path></g><g transform="translate(3127.2069993056098 1518.0447357708981) rotate(0 169.5913004927977 -36.686458504184884)"><path d="M318.06 -60.66 C327.37 -64.45, 334.63 -69.56, 339.18 -74.03 M318.06 -60.66 C323.33 -64.34, 329.32 -68.45, 339.18 -74.03" stroke="#2f9e44" stroke-width="4" fill="none"></path></g><g transform="translate(3127.2069993056098 1518.0447357708981) rotate(0 169.5913004927977 -36.686458504184884)"><path d="M314.41 -77.37 C324.93 -75.28, 333.47 -74.5, 339.18 -74.03 M314.41 -77.37 C320.83 -76.18, 327.88 -75.43, 339.18 -74.03" stroke="#2f9e44" stroke-width="4" fill="none"></path></g></g><mask></mask><g stroke-linecap="round"><g transform="translate(3129.4478989425133 1627.9564117841373) rotate(0 211.33863161525642 121.68818474779778)"><path d="M0.91 0.61 C71.18 41.01, 352.36 202.3, 422.57 242.88 M-0.07 -0.11 C69.95 40.41, 351.36 203.79, 421.57 244.15" stroke="#2f9e44" stroke-width="4" fill="none"></path></g><g transform="translate(3129.4478989425133 1627.9564117841373) rotate(0 211.33863161525642 121.68818474779778)"><path d="M396.95 239.79 C407.32 241.08, 414.79 242.06, 421.57 244.15 M396.95 239.79 C405.65 242.1, 415.37 243.67, 421.57 244.15" stroke="#2f9e44" stroke-width="4" fill="none"></path></g><g transform="translate(3129.4478989425133 1627.9564117841373) rotate(0 211.33863161525642 121.68818474779778)"><path d="M405.51 224.99 C412.69 231.95, 416.92 238.54, 421.57 244.15 M405.51 224.99 C411.05 232.49, 417.73 239.33, 421.57 244.15" stroke="#2f9e44" stroke-width="4" fill="none"></path></g></g><mask></mask><g stroke-linecap="round" transform="translate(3413.1327745705785 1203.496664078979) rotate(0 230.53560614185403 194.85230458355363)"><path d="M20.44 180.75 C20.44 180.75, 20.44 180.75, 20.44 180.75 M20.44 180.75 C20.44 180.75, 20.44 180.75, 20.44 180.75 M18.74 207.09 C48.87 171.26, 77.08 138.54, 108.62 103.7 M18.74 207.09 C41.9 180.08, 66.53 152.99, 108.62 103.7 M29.5 219.1 C76.27 162.82, 125.64 106.66, 187.61 37.21 M29.5 219.1 C82.3 155.6, 137.03 93.53, 187.61 37.21 M41.58 229.6 C86.34 175.3, 135.68 120.58, 230.52 12.24 M41.58 229.6 C91.54 170.79, 142.18 111.47, 230.52 12.24 M53.65 240.09 C113.2 173.55, 171.14 106.37, 247.19 17.45 M53.65 240.09 C126.81 155.58, 200.28 70.66, 247.19 17.45 M65.73 250.59 C141.08 167.47, 213.07 83.89, 260.58 26.44 M65.73 250.59 C110.28 199.46, 154.54 147.78, 260.58 26.44 M78.46 260.33 C135.89 192.09, 195.66 126.74, 273.31 36.18 M78.46 260.33 C154.09 171.2, 231.81 82.61, 273.31 36.18 M90.54 270.83 C137.99 219.82, 182.96 163.34, 286.04 45.92 M90.54 270.83 C147.86 206.32, 204.88 141.36, 286.04 45.92 M102.61 281.33 C151.07 223.36, 202.75 166.1, 298.12 56.42 M102.61 281.33 C174.53 198.45, 245.24 116.9, 298.12 56.42 M114.69 291.82 C177.8 220.96, 236.85 150.77, 310.19 66.92 M114.69 291.82 C182.34 214.2, 251.07 135.29, 310.19 66.92 M127.42 301.56 C175.42 243.57, 226.44 185.75, 322.27 77.42 M127.42 301.56 C170.76 250.89, 215.13 199.07, 322.27 77.42 M139.49 312.06 C179.12 264.52, 221.95 218.85, 334.34 87.91 M139.49 312.06 C193.47 251.65, 245.69 189.76, 334.34 87.91 M151.57 322.56 C216.37 246.83, 284.13 167.92, 346.42 98.41 M151.57 322.56 C202.89 264.41, 254.95 204.85, 346.42 98.41 M163.64 333.06 C220.11 268.14, 278.72 199.76, 358.49 108.91 M163.64 333.06 C219.02 268.67, 273.78 207.3, 358.49 108.91 M176.38 342.8 C233.12 273.53, 294.37 205.24, 371.22 118.65 M176.38 342.8 C240.1 269.96, 302.84 196.78, 371.22 118.65 M188.45 353.29 C239.86 294.13, 291.84 233, 383.3 129.15 M188.45 353.29 C253.14 276.64, 319.71 199.93, 383.3 129.15 M201.18 363.04 C249.93 306.97, 301.86 247.36, 395.38 139.64 M201.18 363.04 C243.92 315.08, 285.24 268.11, 395.38 139.64 M213.91 372.78 C284.85 290.71, 356.06 210.61, 407.45 150.14 M213.91 372.78 C288.47 287.3, 364.91 201.96, 407.45 150.14 M230.58 377.99 C281.2 317.43, 332.53 259.33, 419.53 160.64 M230.58 377.99 C284.86 318.22, 338.95 255.12, 419.53 160.64 M269.56 357.55 C331.97 284.54, 396.62 209.05, 431.6 171.13 M269.56 357.55 C321.24 302.15, 370.45 244.6, 431.6 171.13 M350.52 288.8 C384.24 250.26, 415.77 215.57, 442.36 183.14 M350.52 288.8 C374.7 261.99, 397.93 234.53, 442.36 183.14" stroke="#f8f9fa" stroke-width="2" fill="none"></path><path d="M288.75 48.75 C325.76 79.8, 362.51 112.8, 403.32 146.25 M288.75 48.75 C324.44 78.99, 359.77 107.36, 403.32 146.25 M403.32 146.25 C461.45 195.38, 462.92 193.07, 403.32 243.75 M403.32 146.25 C459.93 195.37, 459.2 194, 403.32 243.75 M403.32 243.75 C365.01 278.88, 326.06 308.67, 288.75 340.95 M403.32 243.75 C359.5 281.66, 313.89 321.38, 288.75 340.95 M288.75 340.95 C231.09 388.43, 231.79 391.64, 173.25 340.95 M288.75 340.95 C230.94 391.17, 230.1 388.51, 173.25 340.95 M173.25 340.95 C128.24 299.83, 80 261.59, 57.75 243.75 M173.25 340.95 C127.24 302.81, 81.8 264.06, 57.75 243.75 M57.75 243.75 C-0.78 196.02, -1.05 194.23, 57.75 146.25 M57.75 243.75 C1.46 193.72, -1.44 195.78, 57.75 146.25 M57.75 146.25 C96.78 113.14, 135.88 80.4, 173.25 48.75 M57.75 146.25 C102.46 108.76, 146.89 70.21, 173.25 48.75 M173.25 48.75 C229.22 0.72, 229.21 0.34, 288.75 48.75 M173.25 48.75 C230.52 -0.9, 232.75 0.88, 288.75 48.75" stroke="#2f9e44" stroke-width="4" fill="none"></path></g><g transform="translate(3539.6086159715833 1330.9228163707558) rotate(0 104.29196166992188 67.5)"><text x="104.29196166992188" y="0" font-family="Virgil, Segoe UI Emoji" font-size="36px" fill="#2f9e44" text-anchor="middle" style="white-space: pre;" direction="ltr" dominant-baseline="text-before-edge">CREATE </text><text x="104.29196166992188" y="45" font-family="Virgil, Segoe UI Emoji" font-size="36px" fill="#2f9e44" text-anchor="middle" style="white-space: pre;" direction="ltr" dominant-baseline="text-before-edge">NEW </text><text x="104.29196166992188" y="90" font-family="Virgil, Segoe UI Emoji" font-size="36px" fill="#2f9e44" text-anchor="middle" style="white-space: pre;" direction="ltr" dominant-baseline="text-before-edge">INCIDENCE</text></g><g stroke-linecap="round" transform="translate(3461.51085651279 1751.815523315971) rotate(0 231.28810137560004 212.27812044061875)"><path d="M20.88 197.02 C20.88 197.02, 20.88 197.02, 20.88 197.02 M20.88 197.02 C20.88 197.02, 20.88 197.02, 20.88 197.02 M18.52 224.12 C44.49 196.75, 68.59 165.07, 137.92 86.77 M18.52 224.12 C45.91 191.97, 73.97 161.35, 137.92 86.77 M27.97 237.64 C89.53 166.93, 150.45 97.55, 219.54 17.26 M27.97 237.64 C81.89 172.32, 138.47 108.95, 219.54 17.26 M39.39 248.89 C120.67 156.83, 203.25 63.01, 242.11 15.69 M39.39 248.89 C95.1 181.61, 152.88 116.28, 242.11 15.69 M51.46 259.39 C120.09 178.78, 190.37 101.01, 255.5 24.67 M51.46 259.39 C102.96 202.3, 152.73 144.19, 255.5 24.67 M62.88 270.64 C137.6 187.84, 208.96 102.98, 268.23 34.42 M62.88 270.64 C114.35 210.56, 166.12 149.54, 268.23 34.42 M74.96 281.14 C115.82 233.04, 157.81 185.97, 280.3 44.91 M74.96 281.14 C153.81 192.36, 232.07 101.12, 280.3 44.91 M87.03 291.63 C163.96 204.18, 240.98 114.57, 292.38 55.41 M87.03 291.63 C146.92 220.47, 208.94 150.01, 292.38 55.41 M98.45 302.89 C169.58 223.98, 239.85 142.3, 303.8 66.66 M98.45 302.89 C153.82 240.37, 208.46 177.48, 303.8 66.66 M110.53 313.38 C176.11 237.55, 240.45 163.92, 315.87 77.16 M110.53 313.38 C172.3 240.79, 235.13 168.59, 315.87 77.16 M121.95 324.63 C188.94 245.11, 259.57 164.3, 327.29 88.41 M121.95 324.63 C164.7 275.03, 207.7 226.39, 327.29 88.41 M134.02 335.13 C175 287.36, 215.56 240.67, 339.37 98.91 M134.02 335.13 C195.86 264.65, 258.85 192.49, 339.37 98.91 M146.1 345.63 C214.48 267.42, 283.72 187.42, 350.79 110.16 M146.1 345.63 C199.46 282.82, 253.79 221.29, 350.79 110.16 M157.52 356.88 C236.57 263.9, 316.9 172.54, 362.86 120.66 M157.52 356.88 C214.52 290.82, 271.44 224.97, 362.86 120.66 M169.59 367.38 C217.5 312.08, 266.17 254.01, 374.28 131.91 M169.59 367.38 C217.53 309.88, 267.89 253.75, 374.28 131.91 M181.67 377.87 C226.43 326.34, 270.33 277.15, 386.36 142.4 M181.67 377.87 C251.34 297.2, 322.48 216.18, 386.36 142.4 M193.09 389.13 C254.56 320.78, 315.47 249.58, 397.78 153.66 M193.09 389.13 C248.73 322.99, 304.45 259.78, 397.78 153.66 M205.82 398.87 C277.32 318.01, 350.02 236.08, 409.2 164.91 M205.82 398.87 C281.2 310.74, 358.1 224.18, 409.2 164.91 M219.21 407.86 C284.34 335.18, 347.96 261.88, 421.27 175.4 M219.21 407.86 C272.33 347.9, 322.91 288.13, 421.27 175.4 M238.5 410.05 C284.72 357.66, 330.92 303.86, 432.69 186.66 M238.5 410.05 C309.9 327.49, 382.3 245.17, 432.69 186.66 M303.71 359.42 C342.16 316.22, 379.62 272.26, 442.8 199.42 M303.71 359.42 C332.87 324.65, 363.44 291.14, 442.8 199.42 M408.29 263.5 C417.52 251.42, 429.24 236.58, 447.66 218.22 M408.29 263.5 C421.02 250.6, 431.06 237.71, 447.66 218.22" stroke="#f8f9fa" stroke-width="2" fill="none"></path><path d="M290 53.25 C326.63 86.71, 364.6 121.81, 404.58 159.75 M290 53.25 C323.41 84.04, 355.26 113.69, 404.58 159.75 M404.58 159.75 C461.74 213.52, 462.78 212.92, 404.58 266.25 M404.58 159.75 C461.04 213.62, 464.77 212.67, 404.58 266.25 M404.58 266.25 C371.79 295.72, 341.07 325.65, 290 371.31 M404.58 266.25 C377.82 293, 350.9 316.93, 290 371.31 M290 371.31 C233.12 426.12, 232.44 423.71, 174 371.31 M290 371.31 C233.39 425.33, 230.28 424.96, 174 371.31 M174 371.31 C148.78 350.28, 125.39 326.06, 58 266.25 M174 371.31 C131.58 334.66, 90.22 297.47, 58 266.25 M58 266.25 C-0.13 213.29, -1.56 212.5, 58 159.75 M58 266.25 C0.84 215.27, 2.06 211.39, 58 159.75 M58 159.75 C94.3 126.09, 134.3 90.26, 174 53.25 M58 159.75 C104.28 117.82, 149.14 76.68, 174 53.25 M174 53.25 C230.72 0, 231.94 1.48, 290 53.25 M174 53.25 C232.16 -0.64, 230.38 1.36, 290 53.25" stroke="#2f9e44" stroke-width="4" fill="none"></path></g><g transform="translate(3588.3629455306677 1918.95458353628) rotate(0 104.29196166992188 45)"><text x="104.29196166992188" y="0" font-family="Virgil, Segoe UI Emoji" font-size="36px" fill="#2f9e44" text-anchor="middle" style="white-space: pre;" direction="ltr" dominant-baseline="text-before-edge">EDIT </text><text x="104.29196166992188" y="45" font-family="Virgil, Segoe UI Emoji" font-size="36px" fill="#2f9e44" text-anchor="middle" style="white-space: pre;" direction="ltr" dominant-baseline="text-before-edge">INCIDENCE</text></g><g stroke-linecap="round"><g transform="translate(3507.63814208653 1901.3530357249347) rotate(0 -189.30628020708605 -112.94841547712804)"><path d="M-1 -0.6 C-63.87 -38.41, -315.51 -189.09, -378.39 -226.5 M0.67 1.7 C-62.24 -36, -315.96 -187.17, -379.21 -225.28" stroke="#2f9e44" stroke-width="4" fill="none"></path></g><g transform="translate(3507.63814208653 1901.3530357249347) rotate(0 -189.30628020708605 -112.94841547712804)"><path d="M-354.67 -220.55 C-360.66 -221.34, -365.65 -222.11, -379.21 -225.28 M-354.67 -220.55 C-364.48 -222.6, -372.86 -224.94, -379.21 -225.28" stroke="#2f9e44" stroke-width="4" fill="none"></path></g><g transform="translate(3507.63814208653 1901.3530357249347) rotate(0 -189.30628020708605 -112.94841547712804)"><path d="M-363.45 -205.88 C-367.71 -209.57, -370.92 -213.32, -379.21 -225.28 M-363.45 -205.88 C-369.9 -213.35, -375.03 -221.13, -379.21 -225.28" stroke="#2f9e44" stroke-width="4" fill="none"></path></g></g><mask></mask><g stroke-linecap="round"><g transform="translate(3421.415564222354 1389.8707861065704) rotate(0 -147.87189090461925 35.917080273632564)"><path d="M-0.16 -0.09 C-49.52 11.77, -246.96 59.91, -296.09 72.06 M-1.7 -1.18 C-51.26 10.21, -248.29 58.03, -297.23 70.06" stroke="#2f9e44" stroke-width="4" fill="none"></path></g><g transform="translate(3421.415564222354 1389.8707861065704) rotate(0 -147.87189090461925 35.917080273632564)"><path d="M-276.43 56.19 C-282.86 59.84, -288.71 65.97, -297.23 70.06 M-276.43 56.19 C-283.71 61.9, -292.64 67.64, -297.23 70.06" stroke="#2f9e44" stroke-width="4" fill="none"></path></g><g transform="translate(3421.415564222354 1389.8707861065704) rotate(0 -147.87189090461925 35.917080273632564)"><path d="M-272.38 72.8 C-280.17 71.35, -287.27 72.38, -297.23 70.06 M-272.38 72.8 C-281.35 72.09, -291.84 71.45, -297.23 70.06" stroke="#2f9e44" stroke-width="4" fill="none"></path></g></g><mask></mask><g stroke-linecap="round" transform="translate(2669.213380394763 2055.700795294785) rotate(0 231.28810137560004 212.27812044061875)"><path d="M20.88 197.02 C20.88 197.02, 20.88 197.02, 20.88 197.02 M20.88 197.02 C20.88 197.02, 20.88 197.02, 20.88 197.02 M18.52 224.12 C51.37 187.21, 84.06 146.23, 137.92 86.77 M18.52 224.12 C59.24 177.76, 99.96 131.14, 137.92 86.77 M27.97 237.64 C83.14 177.8, 134.88 114.15, 219.54 17.26 M27.97 237.64 C76.19 181.46, 125.7 124.23, 219.54 17.26 M39.39 248.89 C108.42 170.81, 178.62 90.38, 242.11 15.69 M39.39 248.89 C109.15 167.07, 179.04 86.9, 242.11 15.69 M51.46 259.39 C113.58 190.33, 174.59 119.98, 255.5 24.67 M51.46 259.39 C100.5 200.88, 151.64 142.2, 255.5 24.67 M62.88 270.64 C117.86 206.48, 174.55 144.41, 268.23 34.42 M62.88 270.64 C120.86 204.1, 178.95 136.23, 268.23 34.42 M74.96 281.14 C127.31 221.24, 177.76 163.32, 280.3 44.91 M74.96 281.14 C127.27 222.55, 177.43 164.05, 280.3 44.91 M87.03 291.63 C148.57 220.08, 209.5 149.58, 292.38 55.41 M87.03 291.63 C135.05 235.83, 184.12 178.8, 292.38 55.41 M98.45 302.89 C159.78 232.63, 221.65 161.4, 303.8 66.66 M98.45 302.89 C155.45 240.02, 211 175.25, 303.8 66.66 M110.53 313.38 C190.73 221, 272.74 127.27, 315.87 77.16 M110.53 313.38 C166.03 250.87, 219.83 188.24, 315.87 77.16 M121.95 324.63 C192.94 244.21, 263.69 160.72, 327.29 88.41 M121.95 324.63 C181.51 257.19, 240.86 188.76, 327.29 88.41 M134.02 335.13 C195.49 263.36, 258.18 190.93, 339.37 98.91 M134.02 335.13 C205.32 253.23, 277.28 170.61, 339.37 98.91 M146.1 345.63 C195.12 291.68, 244.08 237.65, 350.79 110.16 M146.1 345.63 C191.69 291.28, 238.71 237.47, 350.79 110.16 M157.52 356.88 C215.53 291.05, 272.92 226.74, 362.86 120.66 M157.52 356.88 C210.6 295.29, 263.72 233.69, 362.86 120.66 M169.59 367.38 C241.44 283.95, 313.34 198.69, 374.28 131.91 M169.59 367.38 C249.61 276.14, 327.12 186.34, 374.28 131.91 M181.67 377.87 C248.1 299.11, 318.62 218.56, 386.36 142.4 M181.67 377.87 C245.2 303.62, 308.95 229.7, 386.36 142.4 M193.09 389.13 C243.21 333.23, 293.6 275.97, 397.78 153.66 M193.09 389.13 C272.26 298.76, 352.57 207.14, 397.78 153.66 M205.82 398.87 C253.34 344.37, 301.95 289.18, 409.2 164.91 M205.82 398.87 C282.05 311.43, 357.07 225.06, 409.2 164.91 M219.21 407.86 C294.64 322.21, 370.88 233.69, 421.27 175.4 M219.21 407.86 C267.9 349.22, 318.08 291.39, 421.27 175.4 M238.5 410.05 C289.74 347.34, 342.79 288.16, 432.69 186.66 M238.5 410.05 C290.2 350.54, 342.35 292.32, 432.69 186.66 M303.71 359.42 C358.61 298.44, 411.96 238.64, 442.8 199.42 M303.71 359.42 C346.9 308.45, 390.77 258.49, 442.8 199.42 M408.29 263.5 C418.12 249.99, 432.7 237.87, 447.66 218.22 M408.29 263.5 C422.68 246.15, 437.22 229.89, 447.66 218.22" stroke="#f8f9fa" stroke-width="2" fill="none"></path><path d="M290 53.25 C329.9 88.94, 369.09 124.51, 404.58 159.75 M290 53.25 C318.03 81.34, 348.18 108.47, 404.58 159.75 M404.58 159.75 C461.8 212.59, 461.99 214.6, 404.58 266.25 M404.58 159.75 C463.19 215.23, 464.19 213.72, 404.58 266.25 M404.58 266.25 C367.61 302.76, 327.51 337.68, 290 371.31 M404.58 266.25 C357.34 308.19, 312.58 349.81, 290 371.31 M290 371.31 C232.14 424.96, 233.76 423.79, 174 371.31 M290 371.31 C231.43 424.14, 233.27 422.4, 174 371.31 M174 371.31 C131.25 333.93, 88 295.38, 58 266.25 M174 371.31 C142.37 342.37, 109.93 311.45, 58 266.25 M58 266.25 C1.81 212.16, 1.78 213.53, 58 159.75 M58 266.25 C1.98 214.39, -2.29 211.22, 58 159.75 M58 159.75 C99.71 120.39, 142.53 81.58, 174 53.25 M58 159.75 C95.59 125.09, 132.49 89.16, 174 53.25 M174 53.25 C232.05 1.08, 232.52 -0.13, 290 53.25 M174 53.25 C230.49 1.11, 231.22 -1.64, 290 53.25" stroke="#2f9e44" stroke-width="4" fill="none"></path></g><g transform="translate(2796.0654694126415 2222.8398555150943) rotate(0 104.29196166992188 45)"><text x="104.29196166992188" y="0" font-family="Virgil, Segoe UI Emoji" font-size="36px" fill="#2f9e44" text-anchor="middle" style="white-space: pre;" direction="ltr" dominant-baseline="text-before-edge">DELETE</text><text x="104.29196166992188" y="45" font-family="Virgil, Segoe UI Emoji" font-size="36px" fill="#2f9e44" text-anchor="middle" style="white-space: pre;" direction="ltr" dominant-baseline="text-before-edge">INCIDENCE</text></g><g stroke-linecap="round"><g transform="translate(2979.7283252259813 1794.7613030414554) rotate(0 -0.46338384568957736 164.17335408230701)"><path d="M-1.15 1.11 C-1.62 55.97, -1.69 274.52, -1.8 328.89 M0.45 0.64 C0.27 55.17, 0.43 272.47, 0.45 327.05" stroke="#2f9e44" stroke-width="4" fill="none"></path></g><g transform="translate(2979.7283252259813 1794.7613030414554) rotate(0 -0.46338384568957736 164.17335408230701)"><path d="M-8.11 303.56 C-3.05 311.19, -0.7 320.11, 0.45 327.05 M-8.11 303.56 C-5.24 309.04, -5.13 313.82, 0.45 327.05" stroke="#2f9e44" stroke-width="4" fill="none"></path></g><g transform="translate(2979.7283252259813 1794.7613030414554) rotate(0 -0.46338384568957736 164.17335408230701)"><path d="M8.99 303.55 C7.5 311.02, 3.29 319.95, 0.45 327.05 M8.99 303.55 C8.17 308.88, 4.59 313.66, 0.45 327.05" stroke="#2f9e44" stroke-width="4" fill="none"></path></g></g><mask></mask><g stroke-linecap="round"><g transform="translate(2846.2622784229284 2091.0628859181948) rotate(0 0.4521112702184382 -143.55201145572278)"><path d="M-0.44 -0.33 C-0.33 -48.16, -0.64 -240.11, -0.22 -288.08 M1.52 -1.55 C2.08 -49.16, 1.84 -239.42, 1.89 -287.06" stroke="#2f9e44" stroke-width="4" fill="none"></path></g><g transform="translate(2846.2622784229284 2091.0628859181948) rotate(0 0.4521112702184382 -143.55201145572278)"><path d="M10.44 -263.57 C8.22 -270.68, 5.24 -272.13, 1.89 -287.06 M10.44 -263.57 C8.56 -269.21, 7.62 -273.11, 1.89 -287.06" stroke="#2f9e44" stroke-width="4" fill="none"></path></g><g transform="translate(2846.2622784229284 2091.0628859181948) rotate(0 0.4521112702184382 -143.55201145572278)"><path d="M-6.66 -263.57 C-5.09 -270.62, -4.28 -272.07, 1.89 -287.06 M-6.66 -263.57 C-4.88 -269.19, -2.16 -273.09, 1.89 -287.06" stroke="#2f9e44" stroke-width="4" fill="none"></path></g></g><mask></mask></svg>